<svg width="1319" height="323" viewBox="0 0 1319 323" fill="none" xmlns="http://www.w3.org/2000/svg">
<path d="M478.3 183V46.2H531.12C538.783 46.2 545.465 47.7833 551.165 50.95C556.865 54.1167 561.298 58.3917 564.465 63.775C567.632 69.095 569.215 74.985 569.215 81.445C569.215 88.7917 567.252 95.3467 563.325 101.11C559.398 106.81 554.142 110.768 547.555 112.985L547.365 108.33C556.232 110.863 563.198 115.297 568.265 121.63C573.332 127.963 575.865 135.627 575.865 144.62C575.865 152.537 574.187 159.377 570.83 165.14C567.473 170.84 562.755 175.242 556.675 178.345C550.595 181.448 543.533 183 535.49 183H478.3ZM492.36 169.605H532.07C537.643 169.605 542.647 168.623 547.08 166.66C551.513 164.633 554.997 161.783 557.53 158.11C560.127 154.437 561.425 150.003 561.425 144.81C561.425 139.743 560.253 135.183 557.91 131.13C555.567 127.077 552.368 123.847 548.315 121.44C544.325 118.97 539.765 117.735 534.635 117.735H492.36V169.605ZM492.36 104.53H531.025C535.395 104.53 539.385 103.548 542.995 101.585C546.605 99.5583 549.455 96.8033 551.545 93.32C553.698 89.8367 554.775 85.815 554.775 81.255C554.775 74.795 552.527 69.5383 548.03 65.485C543.597 61.4317 537.928 59.405 531.025 59.405H492.36V104.53ZM596.723 183V43.35H610.688V183H596.723ZM641.069 60.925V45.25H655.034V60.925H641.069ZM641.069 183V80.4H655.034V183H641.069ZM721.8 185.755C709.767 185.755 699.855 183.158 692.065 177.965C684.338 172.772 679.588 165.552 677.815 156.305L692.065 153.93C693.585 159.757 697.037 164.412 702.42 167.895C707.867 171.315 714.58 173.025 722.56 173.025C730.35 173.025 736.493 171.41 740.99 168.18C745.487 164.887 747.735 160.422 747.735 154.785C747.735 151.618 747.007 149.053 745.55 147.09C744.157 145.063 741.275 143.195 736.905 141.485C732.535 139.775 726.012 137.748 717.335 135.405C708.025 132.872 700.742 130.338 695.485 127.805C690.228 125.272 686.492 122.358 684.275 119.065C682.058 115.708 680.95 111.623 680.95 106.81C680.95 100.983 682.597 95.885 685.89 91.515C689.183 87.0817 693.743 83.6617 699.57 81.255C705.397 78.785 712.173 77.55 719.9 77.55C727.627 77.55 734.53 78.8167 740.61 81.35C746.753 83.82 751.693 87.3033 755.43 91.8C759.167 96.2967 761.383 101.522 762.08 107.475L747.83 110.04C746.88 104.023 743.872 99.2733 738.805 95.79C733.802 92.2433 727.437 90.4067 719.71 90.28C712.427 90.09 706.505 91.4833 701.945 94.46C697.385 97.3733 695.105 101.268 695.105 106.145C695.105 108.868 695.928 111.212 697.575 113.175C699.222 115.075 702.198 116.88 706.505 118.59C710.875 120.3 717.082 122.168 725.125 124.195C734.562 126.602 741.972 129.135 747.355 131.795C752.738 134.455 756.57 137.59 758.85 141.2C761.13 144.81 762.27 149.275 762.27 154.595C762.27 164.285 758.66 171.917 751.44 177.49C744.283 183 734.403 185.755 721.8 185.755ZM821.624 185.755C809.591 185.755 799.679 183.158 791.889 177.965C784.162 172.772 779.412 165.552 777.639 156.305L791.889 153.93C793.409 159.757 796.861 164.412 802.244 167.895C807.691 171.315 814.404 173.025 822.384 173.025C830.174 173.025 836.317 171.41 840.814 168.18C845.311 164.887 847.559 160.422 847.559 154.785C847.559 151.618 846.831 149.053 845.374 147.09C843.981 145.063 841.099 143.195 836.729 141.485C832.359 139.775 825.836 137.748 817.159 135.405C807.849 132.872 800.566 130.338 795.309 127.805C790.052 125.272 786.316 122.358 784.099 119.065C781.882 115.708 780.774 111.623 780.774 106.81C780.774 100.983 782.421 95.885 785.714 91.515C789.007 87.0817 793.567 83.6617 799.394 81.255C805.221 78.785 811.997 77.55 819.724 77.55C827.451 77.55 834.354 78.8167 840.434 81.35C846.577 83.82 851.517 87.3033 855.254 91.8C858.991 96.2967 861.207 101.522 861.904 107.475L847.654 110.04C846.704 104.023 843.696 99.2733 838.629 95.79C833.626 92.2433 827.261 90.4067 819.534 90.28C812.251 90.09 806.329 91.4833 801.769 94.46C797.209 97.3733 794.929 101.268 794.929 106.145C794.929 108.868 795.752 111.212 797.399 113.175C799.046 115.075 802.022 116.88 806.329 118.59C810.699 120.3 816.906 122.168 824.949 124.195C834.386 126.602 841.796 129.135 847.179 131.795C852.562 134.455 856.394 137.59 858.674 141.2C860.954 144.81 862.094 149.275 862.094 154.595C862.094 164.285 858.484 171.917 851.264 177.49C844.107 183 834.227 185.755 821.624 185.755ZM976.585 185.85C962.969 185.85 951.474 182.842 942.1 176.825C932.727 170.745 925.634 162.353 920.82 151.65C916.007 140.947 913.6 128.597 913.6 114.6C913.6 100.603 916.007 88.2533 920.82 77.55C925.634 66.8467 932.727 58.4867 942.1 52.47C951.474 46.39 962.969 43.35 976.585 43.35C990.265 43.35 1001.76 46.39 1011.07 52.47C1020.44 58.4867 1027.54 66.8467 1032.35 77.55C1037.23 88.2533 1039.67 100.603 1039.67 114.6C1039.67 128.597 1037.23 140.947 1032.35 151.65C1027.54 162.353 1020.44 170.745 1011.07 176.825C1001.76 182.842 990.265 185.85 976.585 185.85ZM976.585 172.455C987.289 172.455 996.219 170.017 1003.38 165.14C1010.53 160.263 1015.88 153.487 1019.43 144.81C1023.04 136.07 1024.85 126 1024.85 114.6C1024.85 103.2 1023.04 93.1617 1019.43 84.485C1015.88 75.8083 1010.53 69.0317 1003.38 64.155C996.219 59.2783 987.289 56.8083 976.585 56.745C965.882 56.745 956.984 59.1833 949.89 64.06C942.797 68.9367 937.445 75.745 933.835 84.485C930.289 93.1617 928.484 103.2 928.42 114.6C928.357 126 930.099 136.038 933.645 144.715C937.255 153.328 942.639 160.105 949.795 165.045C956.952 169.922 965.882 172.392 976.585 172.455ZM1106.19 185.85C1096.63 185.85 1088.01 184.267 1080.35 181.1C1072.75 177.87 1066.45 173.31 1061.45 167.42C1056.51 161.53 1053.28 154.532 1051.76 146.425L1066.01 144.05C1068.29 152.917 1073.1 159.883 1080.45 164.95C1087.79 169.953 1096.56 172.455 1106.76 172.455C1113.47 172.455 1119.49 171.41 1124.81 169.32C1130.13 167.167 1134.31 164.127 1137.35 160.2C1140.39 156.273 1141.91 151.618 1141.91 146.235C1141.91 142.688 1141.28 139.68 1140.01 137.21C1138.74 134.677 1137.07 132.587 1134.98 130.94C1132.89 129.293 1130.61 127.932 1128.14 126.855C1125.67 125.715 1123.26 124.797 1120.92 124.1L1086.24 113.745C1082.06 112.542 1078.2 111.022 1074.65 109.185C1071.1 107.285 1068 105.037 1065.34 102.44C1062.74 99.78 1060.72 96.6767 1059.26 93.13C1057.8 89.5833 1057.08 85.53 1057.08 80.97C1057.08 73.2433 1059.1 66.5617 1063.16 60.925C1067.21 55.2883 1072.75 50.95 1079.78 47.91C1086.81 44.87 1094.82 43.3817 1103.82 43.445C1112.94 43.445 1121.07 45.06 1128.23 48.29C1135.45 51.52 1141.4 56.1433 1146.09 62.16C1150.78 68.1133 1153.88 75.175 1155.4 83.345L1140.77 86.005C1139.82 80.0517 1137.64 74.89 1134.22 70.52C1130.8 66.15 1126.43 62.7933 1121.11 60.45C1115.85 58.0433 1110.05 56.8083 1103.72 56.745C1097.58 56.745 1092.1 57.79 1087.29 59.88C1082.54 61.9067 1078.77 64.6933 1075.98 68.24C1073.19 71.7867 1071.8 75.84 1071.8 80.4C1071.8 85.0233 1073.07 88.7283 1075.6 91.515C1078.2 94.3017 1081.36 96.4867 1085.1 98.07C1088.9 99.6533 1092.57 100.952 1096.12 101.965L1122.91 109.85C1125.7 110.61 1128.96 111.718 1132.7 113.175C1136.5 114.568 1140.17 116.595 1143.72 119.255C1147.33 121.852 1150.3 125.272 1152.65 129.515C1154.99 133.758 1156.16 139.142 1156.16 145.665C1156.16 151.998 1154.89 157.667 1152.36 162.67C1149.89 167.673 1146.38 171.885 1141.82 175.305C1137.32 178.725 1132.03 181.322 1125.95 183.095C1119.93 184.932 1113.35 185.85 1106.19 185.85Z" fill="white"/>
<path d="M497.284 266.26C493.28 266.26 489.878 265.196 487.078 263.068C484.278 260.94 482.136 258.07 480.652 254.458C479.196 250.818 478.468 246.744 478.468 242.236C478.468 237.644 479.21 233.556 480.694 229.972C482.178 226.36 484.362 223.532 487.246 221.488C490.158 219.416 493.728 218.38 497.956 218.38C502.016 218.38 505.46 219.444 508.288 221.572C511.144 223.672 513.314 226.528 514.798 230.14C516.282 233.752 517.024 237.784 517.024 242.236C517.024 246.772 516.268 250.86 514.756 254.5C513.244 258.112 511.018 260.982 508.078 263.11C505.166 265.21 501.568 266.26 497.284 266.26ZM477.88 265V204.52H481.408V229.3H481.156V265H477.88ZM497.284 262.732C500.784 262.732 503.71 261.836 506.062 260.044C508.442 258.252 510.234 255.816 511.438 252.736C512.642 249.628 513.244 246.128 513.244 242.236C513.244 238.372 512.656 234.914 511.48 231.862C510.332 228.782 508.582 226.36 506.23 224.596C503.878 222.804 500.896 221.908 497.284 221.908C493.756 221.908 490.788 222.776 488.38 224.512C486 226.248 484.194 228.656 482.962 231.736C481.758 234.788 481.156 238.288 481.156 242.236C481.156 246.128 481.758 249.628 482.962 252.736C484.166 255.816 485.958 258.252 488.338 260.044C490.746 261.836 493.728 262.732 497.284 262.732ZM527.118 265V203.26H530.646V265H527.118ZM544.099 209.896V204.52H547.627V209.896H544.099ZM544.099 265V219.64H547.627V265H544.099ZM576.787 266.176C571.663 266.176 567.407 265.112 564.019 262.984C560.631 260.828 558.531 257.86 557.719 254.08L561.331 253.408C562.087 256.208 563.851 258.448 566.623 260.128C569.423 261.808 572.839 262.648 576.871 262.648C580.987 262.648 584.249 261.766 586.657 260.002C589.093 258.238 590.311 255.844 590.311 252.82C590.311 251.168 589.947 249.824 589.219 248.788C588.491 247.724 587.063 246.758 584.935 245.89C582.835 245.022 579.727 244.028 575.611 242.908C571.299 241.732 567.939 240.598 565.531 239.506C563.151 238.386 561.471 237.14 560.491 235.768C559.539 234.368 559.063 232.66 559.063 230.644C559.063 228.236 559.777 226.108 561.205 224.26C562.633 222.412 564.607 220.97 567.127 219.934C569.647 218.898 572.559 218.38 575.863 218.38C579.195 218.38 582.191 218.94 584.851 220.06C587.539 221.152 589.695 222.692 591.319 224.68C592.971 226.64 593.923 228.908 594.175 231.484L590.563 232.156C590.031 228.992 588.407 226.5 585.691 224.68C583.003 222.832 579.643 221.908 575.611 221.908C571.831 221.852 568.737 222.622 566.329 224.218C563.949 225.814 562.759 227.9 562.759 230.476C562.759 231.904 563.165 233.136 563.977 234.172C564.789 235.18 566.203 236.104 568.219 236.944C570.235 237.784 573.035 238.652 576.619 239.548C581.155 240.696 584.683 241.858 587.203 243.034C589.751 244.21 591.529 245.582 592.537 247.15C593.573 248.718 594.091 250.664 594.091 252.988C594.091 257.104 592.551 260.338 589.471 262.69C586.391 265.014 582.163 266.176 576.787 266.176ZM619.936 266.176C614.812 266.176 610.556 265.112 607.168 262.984C603.78 260.828 601.68 257.86 600.868 254.08L604.48 253.408C605.236 256.208 607 258.448 609.772 260.128C612.572 261.808 615.988 262.648 620.02 262.648C624.136 262.648 627.398 261.766 629.806 260.002C632.242 258.238 633.46 255.844 633.46 252.82C633.46 251.168 633.096 249.824 632.368 248.788C631.64 247.724 630.212 246.758 628.084 245.89C625.984 245.022 622.876 244.028 618.76 242.908C614.448 241.732 611.088 240.598 608.68 239.506C606.3 238.386 604.62 237.14 603.64 235.768C602.688 234.368 602.212 232.66 602.212 230.644C602.212 228.236 602.926 226.108 604.354 224.26C605.782 222.412 607.756 220.97 610.276 219.934C612.796 218.898 615.708 218.38 619.012 218.38C622.344 218.38 625.34 218.94 628 220.06C630.688 221.152 632.844 222.692 634.468 224.68C636.12 226.64 637.072 228.908 637.324 231.484L633.712 232.156C633.18 228.992 631.556 226.5 628.84 224.68C626.152 222.832 622.792 221.908 618.76 221.908C614.98 221.852 611.886 222.622 609.478 224.218C607.098 225.814 605.908 227.9 605.908 230.476C605.908 231.904 606.314 233.136 607.126 234.172C607.938 235.18 609.352 236.104 611.368 236.944C613.384 237.784 616.184 238.652 619.768 239.548C624.304 240.696 627.832 241.858 630.352 243.034C632.9 244.21 634.678 245.582 635.686 247.15C636.722 248.718 637.24 250.664 637.24 252.988C637.24 257.104 635.7 260.338 632.62 262.69C629.54 265.014 625.312 266.176 619.936 266.176ZM664.764 266.26C660.284 266.26 656.504 265.238 653.424 263.194C650.344 261.15 648.006 258.322 646.41 254.71C644.814 251.098 644.016 246.94 644.016 242.236C644.016 237.476 644.828 233.304 646.452 229.72C648.076 226.136 650.428 223.35 653.508 221.362C656.616 219.374 660.368 218.38 664.764 218.38C669.272 218.38 673.066 219.402 676.146 221.446C679.226 223.462 681.55 226.262 683.118 229.846C684.714 233.43 685.512 237.56 685.512 242.236C685.512 247.024 684.714 251.224 683.118 254.836C681.522 258.42 679.17 261.22 676.062 263.236C672.982 265.252 669.216 266.26 664.764 266.26ZM664.764 262.732C670.476 262.732 674.732 260.842 677.532 257.062C680.332 253.254 681.732 248.312 681.732 242.236C681.732 236.048 680.318 231.12 677.49 227.452C674.69 223.756 670.448 221.908 664.764 221.908C660.928 221.908 657.75 222.776 655.23 224.512C652.738 226.248 650.876 228.642 649.644 231.694C648.412 234.746 647.796 238.26 647.796 242.236C647.796 248.396 649.224 253.352 652.08 257.104C654.964 260.856 659.192 262.732 664.764 262.732ZM711.319 266.176C706.195 266.176 701.939 265.112 698.551 262.984C695.163 260.828 693.063 257.86 692.251 254.08L695.863 253.408C696.619 256.208 698.383 258.448 701.155 260.128C703.955 261.808 707.371 262.648 711.403 262.648C715.519 262.648 718.781 261.766 721.189 260.002C723.625 258.238 724.843 255.844 724.843 252.82C724.843 251.168 724.479 249.824 723.751 248.788C723.023 247.724 721.595 246.758 719.467 245.89C717.367 245.022 714.259 244.028 710.143 242.908C705.831 241.732 702.471 240.598 700.063 239.506C697.683 238.386 696.003 237.14 695.023 235.768C694.071 234.368 693.595 232.66 693.595 230.644C693.595 228.236 694.309 226.108 695.737 224.26C697.165 222.412 699.139 220.97 701.659 219.934C704.179 218.898 707.091 218.38 710.395 218.38C713.727 218.38 716.723 218.94 719.383 220.06C722.071 221.152 724.227 222.692 725.851 224.68C727.503 226.64 728.455 228.908 728.707 231.484L725.095 232.156C724.563 228.992 722.939 226.5 720.223 224.68C717.535 222.832 714.175 221.908 710.143 221.908C706.363 221.852 703.269 222.622 700.861 224.218C698.481 225.814 697.291 227.9 697.291 230.476C697.291 231.904 697.697 233.136 698.509 234.172C699.321 235.18 700.735 236.104 702.751 236.944C704.767 237.784 707.567 238.652 711.151 239.548C715.687 240.696 719.215 241.858 721.735 243.034C724.283 244.21 726.061 245.582 727.069 247.15C728.105 248.718 728.623 250.664 728.623 252.988C728.623 257.104 727.083 260.338 724.003 262.69C720.923 265.014 716.695 266.176 711.319 266.176ZM738.759 265V259.96H743.799V265H738.759ZM774.604 266.26C770.124 266.26 766.344 265.238 763.264 263.194C760.184 261.15 757.846 258.322 756.25 254.71C754.654 251.098 753.856 246.94 753.856 242.236C753.856 237.476 754.668 233.304 756.292 229.72C757.916 226.136 760.268 223.35 763.348 221.362C766.456 219.374 770.208 218.38 774.604 218.38C779.112 218.38 782.906 219.402 785.986 221.446C789.066 223.462 791.39 226.262 792.958 229.846C794.554 233.43 795.352 237.56 795.352 242.236C795.352 247.024 794.554 251.224 792.958 254.836C791.362 258.42 789.01 261.22 785.902 263.236C782.822 265.252 779.056 266.26 774.604 266.26ZM774.604 262.732C780.316 262.732 784.572 260.842 787.372 257.062C790.172 253.254 791.572 248.312 791.572 242.236C791.572 236.048 790.158 231.12 787.33 227.452C784.53 223.756 780.288 221.908 774.604 221.908C770.768 221.908 767.59 222.776 765.07 224.512C762.578 226.248 760.716 228.642 759.484 231.694C758.252 234.746 757.636 238.26 757.636 242.236C757.636 248.396 759.064 253.352 761.92 257.104C764.804 260.856 769.032 262.732 774.604 262.732ZM804.61 265V219.64H807.886V230.476L806.794 229.048C807.27 227.816 807.872 226.668 808.6 225.604C809.328 224.54 810.042 223.672 810.742 223C811.974 221.796 813.43 220.886 815.11 220.27C816.818 219.626 818.526 219.262 820.234 219.178C821.942 219.066 823.454 219.22 824.77 219.64V223C822.894 222.58 820.906 222.51 818.806 222.79C816.706 223.042 814.746 224.008 812.926 225.688C811.33 227.172 810.196 228.88 809.524 230.812C808.88 232.744 808.488 234.746 808.348 236.818C808.208 238.862 808.138 240.808 808.138 242.656V265H804.61ZM848.411 286.42C846.227 286.42 844.029 286.112 841.817 285.496C839.605 284.88 837.519 283.83 835.559 282.346C833.627 280.89 831.975 278.888 830.603 276.34L833.711 274.24C835.223 277.348 837.351 279.546 840.095 280.834C842.839 282.15 845.611 282.808 848.411 282.808C852.471 282.808 855.635 282.038 857.903 280.498C860.199 278.986 861.809 276.718 862.733 273.694C863.657 270.698 864.119 266.96 864.119 262.48V250.888H864.455V219.64H867.731V262.48C867.731 263.852 867.703 265.182 867.647 266.47C867.591 267.758 867.479 269.032 867.311 270.292C866.863 273.96 865.883 276.984 864.371 279.364C862.887 281.744 860.829 283.508 858.197 284.656C855.565 285.832 852.303 286.42 848.411 286.42ZM848.327 266.26C844.043 266.26 840.431 265.21 837.491 263.11C834.579 260.982 832.367 258.112 830.855 254.5C829.343 250.86 828.587 246.772 828.587 242.236C828.587 237.784 829.329 233.752 830.813 230.14C832.297 226.528 834.453 223.672 837.281 221.572C840.137 219.444 843.595 218.38 847.655 218.38C851.883 218.38 855.439 219.416 858.323 221.488C861.235 223.532 863.433 226.36 864.917 229.972C866.401 233.556 867.143 237.644 867.143 242.236C867.143 246.744 866.401 250.818 864.917 254.458C863.461 258.07 861.333 260.94 858.533 263.068C855.733 265.196 852.331 266.26 848.327 266.26ZM848.327 262.732C851.883 262.732 854.851 261.836 857.231 260.044C859.639 258.252 861.445 255.816 862.649 252.736C863.853 249.628 864.455 246.128 864.455 242.236C864.455 238.288 863.839 234.788 862.607 231.736C861.403 228.656 859.597 226.248 857.189 224.512C854.809 222.776 851.855 221.908 848.327 221.908C844.715 221.908 841.719 222.804 839.339 224.596C836.987 226.36 835.237 228.782 834.089 231.862C832.941 234.914 832.367 238.372 832.367 242.236C832.367 246.128 832.969 249.628 834.173 252.736C835.377 255.816 837.155 258.252 839.507 260.044C841.887 261.836 844.827 262.732 848.327 262.732Z" fill="white"/>
<path d="M272.204 265C311.689 260.228 348.854 241.735 375.735 209.986C402.614 178.236 414.537 138.752 412.422 99.3854C372.937 104.156 335.773 122.65 308.892 154.399C282.012 186.149 270.089 225.633 272.204 265Z" fill="white"/>
<path d="M272.204 265C311.689 260.228 348.854 241.735 375.735 209.986C402.614 178.236 414.537 138.752 412.422 99.3854C372.937 104.156 335.773 122.65 308.892 154.399C282.012 186.149 270.089 225.633 272.204 265Z" fill="white"/>
<path d="M262.456 265C264.572 225.634 252.649 186.149 225.769 154.399C198.888 122.65 161.723 104.157 122.239 99.3856C120.123 138.752 132.046 178.237 158.927 209.986C185.807 241.736 222.972 260.228 262.456 265Z" fill="white"/>
<path d="M262.456 265C264.572 225.634 252.649 186.149 225.769 154.399C198.888 122.65 161.723 104.157 122.239 99.3856C120.123 138.752 132.046 178.237 158.927 209.986C185.807 241.736 222.972 260.228 262.456 265Z" fill="white"/>
<path fill-rule="evenodd" clip-rule="evenodd" d="M295.461 87.494C288.264 72.6804 278.775 59.0501 267.418 47C256.03 59.083 246.52 72.7552 239.315 87.6158C250.39 99.0504 259.877 112.148 267.329 126.722C274.808 112.096 284.336 98.9574 295.461 87.494Z" fill="white"/>
<path fill-rule="evenodd" clip-rule="evenodd" d="M295.461 87.494C288.264 72.6804 278.775 59.0501 267.418 47C256.03 59.083 246.52 72.7552 239.315 87.6158C250.39 99.0504 259.877 112.148 267.329 126.722C274.808 112.096 284.336 98.9574 295.461 87.494Z" fill="white"/>
<path fill-rule="evenodd" clip-rule="evenodd" d="M177.686 108.114C179.328 91.7132 183.546 75.6474 190.075 60.4378C221.758 76.4034 247.919 102.037 263.334 135.099C261.946 138.245 260.65 141.453 259.449 144.722C255.328 155.944 252.532 167.345 250.985 178.769C245.599 168.586 239.049 158.84 231.314 149.704C216.122 131.76 197.803 117.876 177.686 108.114Z" fill="white"/>
<path fill-rule="evenodd" clip-rule="evenodd" d="M177.686 108.114C179.328 91.7132 183.546 75.6474 190.075 60.4378C221.758 76.4034 247.919 102.037 263.334 135.099C261.946 138.245 260.65 141.453 259.449 144.722C255.328 155.944 252.532 167.345 250.985 178.769C245.599 168.586 239.049 158.84 231.314 149.704C216.122 131.76 197.803 117.876 177.686 108.114Z" fill="white"/>
<path fill-rule="evenodd" clip-rule="evenodd" d="M356.973 108.115C355.33 91.7137 351.113 75.6476 344.583 60.4378C309.126 78.3053 280.585 108.281 266.282 147.227C260.92 161.828 257.908 176.738 257.059 191.584C261.792 202.819 265.207 214.473 267.33 226.334C272.26 198.791 284.156 172.37 303.346 149.704C318.538 131.76 336.856 117.877 356.973 108.115Z" fill="white"/>
<path fill-rule="evenodd" clip-rule="evenodd" d="M356.973 108.115C355.33 91.7137 351.113 75.6476 344.583 60.4378C309.126 78.3053 280.585 108.281 266.282 147.227C260.92 161.828 257.908 176.738 257.059 191.584C261.792 202.819 265.207 214.473 267.33 226.334C272.26 198.791 284.156 172.37 303.346 149.704C318.538 131.76 336.856 117.877 356.973 108.115Z" fill="white"/>
</svg>
