<svg version="1.1" id="Layer_1" xmlns="http://www.w3.org/2000/svg" xmlns:xlink="http://www.w3.org/1999/xlink" x="0px" y="0px"
	 width="100%" viewBox="0 0 400 400" enable-background="new 0 0 400 400" xml:space="preserve">
<path fill="#000000" opacity="1.000000" stroke="none" 
	d="
M272.000000,401.000000 
	C181.361511,401.000000 91.223015,401.000000 1.042259,401.000000 
	C1.042259,267.736511 1.042259,134.473007 1.042259,1.104748 
	C134.221771,1.104748 267.443634,1.104748 400.832764,1.104748 
	C400.832764,134.333160 400.832764,267.666565 400.832764,401.000000 
	C358.139740,401.000000 315.319885,401.000000 272.000000,401.000000 
M342.628113,237.147507 
	C348.525635,242.310135 355.270355,243.007141 362.106812,239.872192 
	C368.960266,236.729431 372.142517,231.006226 372.050995,223.277252 
	C371.875580,208.463837 372.032440,193.646744 371.985199,178.831390 
	C371.963440,172.002457 367.006348,165.243820 360.670654,163.008591 
	C350.717407,159.497086 336.302368,164.542023 336.044830,180.765915 
	C335.828217,194.412720 336.027466,208.065781 335.986450,221.715897 
	C335.970154,227.139771 337.077057,232.102554 341.117493,236.515900 
	C341.403992,236.621719 341.690491,236.727539 342.628113,237.147507 
M119.000000,79.500000 
	C118.999931,69.672020 119.265472,59.835052 118.933151,50.018318 
	C118.509537,37.505287 111.040131,30.165173 100.318260,30.230038 
	C91.270363,30.284775 82.812508,36.849560 82.847702,49.764347 
	C83.122833,150.709091 82.999992,251.654907 83.000053,352.600403 
	C83.000053,353.766449 82.983574,354.932770 83.004143,356.098450 
	C83.170586,365.530182 94.264275,373.733093 103.493256,371.221771 
	C114.245522,368.295929 118.996681,362.182648 118.997292,350.854004 
	C119.002106,260.735992 118.999992,170.617996 119.000000,79.500000 
M134.000000,300.494690 
	C134.000000,303.826508 134.208069,307.173828 133.961426,310.487305 
	C133.186996,320.891785 142.781509,328.223694 151.596100,328.062805 
	C161.186707,327.887695 169.162628,320.779968 169.128281,310.415131 
	C168.886536,237.447052 168.890045,164.477432 169.125229,91.509300 
	C169.158371,81.233238 161.181808,74.072037 151.520294,73.937210 
	C142.760941,73.814964 133.842606,81.113235 133.878204,91.585770 
	C134.113708,160.888763 134.000000,230.192917 134.000000,300.494690 
M32.000000,183.500000 
	C32.000008,217.972412 31.907555,252.445435 32.132896,286.916382 
	C32.157341,290.655487 33.440838,294.676208 35.154007,298.051880 
	C38.365543,304.379913 47.449837,307.664215 54.965824,305.932434 
	C61.401958,304.449493 67.977615,296.776703 67.980942,290.442810 
	C68.012207,230.823868 68.105591,171.204300 67.753845,111.587425 
	C67.731117,107.734200 65.017357,103.020653 62.094883,100.245155 
	C56.211037,94.657204 48.681198,94.223808 41.550323,97.956764 
	C34.892155,101.442261 31.980236,107.532021 31.989779,115.054001 
	C32.018295,137.535965 32.000008,160.017990 32.000000,183.500000 
M272.000000,153.500000 
	C271.999939,139.678070 272.031891,125.856033 271.987732,112.034241 
	C271.961548,103.837624 264.118774,96.520630 255.957748,95.900551 
	C243.249451,94.934952 235.967163,104.446526 235.977554,116.109558 
	C236.027512,172.229614 235.986023,228.349762 236.042114,284.469818 
	C236.044861,287.220978 236.443344,290.018829 237.029953,292.713898 
	C239.111160,302.275635 247.144821,307.450317 258.017639,305.927673 
	C264.771057,304.981903 272.164520,297.284210 272.117706,288.887817 
	C271.867920,244.093063 272.000000,199.296158 272.000000,153.500000 
M185.863052,132.536865 
	C185.575363,134.458176 185.038849,136.379196 185.036621,138.300842 
	C184.988480,179.777283 184.982437,221.253845 185.042130,262.730255 
	C185.045853,265.315796 185.426727,267.954681 186.023941,270.475952 
	C188.335098,280.232880 195.325516,285.563965 207.258774,283.926605 
	C214.867065,282.882660 221.170151,275.118988 221.121719,266.875092 
	C220.863327,222.901505 220.873688,178.924911 221.114044,134.951126 
	C221.158356,126.844872 214.770081,119.081734 207.088654,118.041359 
	C194.730362,116.367523 187.845596,122.721680 185.863052,132.536865 
M287.000000,222.500000 
	C287.336639,231.752106 287.151886,241.062607 288.179230,250.237366 
	C288.963287,257.239655 298.948364,263.803955 305.792633,262.951752 
	C315.541412,261.737854 322.916534,255.158966 322.949402,246.998688 
	C323.072968,216.335571 323.281708,185.667496 322.832672,155.010452 
	C322.691589,145.378769 313.111359,138.332550 302.465057,139.661316 
	C291.657288,141.010254 286.842590,150.673386 286.932678,159.506836 
	C287.143402,180.169296 287.000000,200.835388 287.000000,222.500000 
z"/>
<path fill="#00A0C6" opacity="1.000000" stroke="none" 
	d="
M119.000000,80.000000 
	C118.999992,170.617996 119.002106,260.735992 118.997292,350.854004 
	C118.996681,362.182648 114.245522,368.295929 103.493256,371.221771 
	C94.264275,373.733093 83.170586,365.530182 83.004143,356.098450 
	C82.983574,354.932770 83.000053,353.766449 83.000053,352.600403 
	C82.999992,251.654907 83.122833,150.709091 82.847702,49.764347 
	C82.812508,36.849560 91.270363,30.284775 100.318260,30.230038 
	C111.040131,30.165173 118.509537,37.505287 118.933151,50.018318 
	C119.265472,59.835052 118.999931,69.672020 119.000000,80.000000 
z"/>
<path fill="#00A0C6" opacity="1.000000" stroke="none" 
	d="
M134.000000,299.995697 
	C134.000000,230.192917 134.113708,160.888763 133.878204,91.585770 
	C133.842606,81.113235 142.760941,73.814964 151.520294,73.937210 
	C161.181808,74.072037 169.158371,81.233238 169.125229,91.509300 
	C168.890045,164.477432 168.886536,237.447052 169.128281,310.415131 
	C169.162628,320.779968 161.186707,327.887695 151.596100,328.062805 
	C142.781509,328.223694 133.186996,320.891785 133.961426,310.487305 
	C134.208069,307.173828 134.000000,303.826508 134.000000,299.995697 
z"/>
<path fill="#00A0C6" opacity="1.000000" stroke="none" 
	d="
M32.000000,183.000000 
	C32.000008,160.017990 32.018295,137.535965 31.989779,115.054001 
	C31.980236,107.532021 34.892155,101.442261 41.550323,97.956764 
	C48.681198,94.223808 56.211037,94.657204 62.094883,100.245155 
	C65.017357,103.020653 67.731117,107.734200 67.753845,111.587425 
	C68.105591,171.204300 68.012207,230.823868 67.980942,290.442810 
	C67.977615,296.776703 61.401958,304.449493 54.965824,305.932434 
	C47.449837,307.664215 38.365543,304.379913 35.154007,298.051880 
	C33.440838,294.676208 32.157341,290.655487 32.132896,286.916382 
	C31.907555,252.445435 32.000008,217.972412 32.000000,183.000000 
z"/>
<path fill="#00A0C6" opacity="1.000000" stroke="none" 
	d="
M272.000000,154.000000 
	C272.000000,199.296158 271.867920,244.093063 272.117706,288.887817 
	C272.164520,297.284210 264.771057,304.981903 258.017639,305.927673 
	C247.144821,307.450317 239.111160,302.275635 237.029953,292.713898 
	C236.443344,290.018829 236.044861,287.220978 236.042114,284.469818 
	C235.986023,228.349762 236.027512,172.229614 235.977554,116.109558 
	C235.967163,104.446526 243.249451,94.934952 255.957748,95.900551 
	C264.118774,96.520630 271.961548,103.837624 271.987732,112.034241 
	C272.031891,125.856033 271.999939,139.678070 272.000000,154.000000 
z"/>
<path fill="#00A0C6" opacity="1.000000" stroke="none" 
	d="
M185.920380,132.112579 
	C187.845596,122.721680 194.730362,116.367523 207.088654,118.041359 
	C214.770081,119.081734 221.158356,126.844872 221.114044,134.951126 
	C220.873688,178.924911 220.863327,222.901505 221.121719,266.875092 
	C221.170151,275.118988 214.867065,282.882660 207.258774,283.926605 
	C195.325516,285.563965 188.335098,280.232880 186.023941,270.475952 
	C185.426727,267.954681 185.045853,265.315796 185.042130,262.730255 
	C184.982437,221.253845 184.988480,179.777283 185.036621,138.300842 
	C185.038849,136.379196 185.575363,134.458176 185.920380,132.112579 
z"/>
<path fill="#00A0C6" opacity="1.000000" stroke="none" 
	d="
M287.000000,222.000000 
	C287.000000,200.835388 287.143402,180.169296 286.932678,159.506836 
	C286.842590,150.673386 291.657288,141.010254 302.465057,139.661316 
	C313.111359,138.332550 322.691589,145.378769 322.832672,155.010452 
	C323.281708,185.667496 323.072968,216.335571 322.949402,246.998688 
	C322.916534,255.158966 315.541412,261.737854 305.792633,262.951752 
	C298.948364,263.803955 288.963287,257.239655 288.179230,250.237366 
	C287.151886,241.062607 287.336639,231.752106 287.000000,222.000000 
z"/>
<path fill="#00A0C6" opacity="1.000000" stroke="none" 
	d="
M341.166656,236.012543 
	C337.077057,232.102554 335.970154,227.139771 335.986450,221.715897 
	C336.027466,208.065781 335.828217,194.412720 336.044830,180.765915 
	C336.302368,164.542023 350.717407,159.497086 360.670654,163.008591 
	C367.006348,165.243820 371.963440,172.002457 371.985199,178.831390 
	C372.032440,193.646744 371.875580,208.463837 372.050995,223.277252 
	C372.142517,231.006226 368.960266,236.729431 362.106812,239.872192 
	C355.270355,243.007141 348.525635,242.310135 342.177551,236.843948 
	C341.552917,236.350906 341.366150,236.174957 341.166656,236.012543 
z"/>
<path fill="#00A0C6" opacity="1.000000" stroke="none" 
	d="
M341.142090,236.264221 
	C341.366150,236.174957 341.552917,236.350906 341.851990,236.686859 
	C341.690491,236.727539 341.403992,236.621719 341.142090,236.264221 
z"/>
</svg>