<svg width="1319" height="323" viewBox="0 0 1319 323" fill="none" xmlns="http://www.w3.org/2000/svg">
<path d="M478.891 183V46.2H531.711C539.374 46.2 546.056 47.7833 551.756 50.95C557.456 54.1167 561.889 58.3917 565.056 63.775C568.222 69.095 569.806 74.985 569.806 81.445C569.806 88.7917 567.842 95.3467 563.916 101.11C559.989 106.81 554.732 110.768 548.146 112.985L547.956 108.33C556.822 110.863 563.789 115.297 568.856 121.63C573.922 127.963 576.456 135.627 576.456 144.62C576.456 152.537 574.777 159.377 571.421 165.14C568.064 170.84 563.346 175.242 557.266 178.345C551.186 181.448 544.124 183 536.081 183H478.891ZM492.951 169.605H532.661C538.234 169.605 543.237 168.623 547.671 166.66C552.104 164.633 555.587 161.783 558.121 158.11C560.717 154.437 562.016 150.003 562.016 144.81C562.016 139.743 560.844 135.183 558.501 131.13C556.157 127.077 552.959 123.847 548.906 121.44C544.916 118.97 540.356 117.735 535.226 117.735H492.951V169.605ZM492.951 104.53H531.616C535.986 104.53 539.976 103.548 543.586 101.585C547.196 99.5583 550.046 96.8033 552.136 93.32C554.289 89.8367 555.366 85.815 555.366 81.255C555.366 74.795 553.117 69.5383 548.621 65.485C544.187 61.4317 538.519 59.405 531.616 59.405H492.951V104.53ZM597.314 183V43.35H611.279V183H597.314ZM641.66 60.925V45.25H655.625V60.925H641.66ZM641.66 183V80.4H655.625V183H641.66ZM722.391 185.755C710.357 185.755 700.446 183.158 692.656 177.965C684.929 172.772 680.179 165.552 678.406 156.305L692.656 153.93C694.176 159.757 697.627 164.412 703.011 167.895C708.457 171.315 715.171 173.025 723.151 173.025C730.941 173.025 737.084 171.41 741.581 168.18C746.077 164.887 748.326 160.422 748.326 154.785C748.326 151.618 747.597 149.053 746.141 147.09C744.747 145.063 741.866 143.195 737.496 141.485C733.126 139.775 726.602 137.748 717.926 135.405C708.616 132.872 701.332 130.338 696.076 127.805C690.819 125.272 687.082 122.358 684.866 119.065C682.649 115.708 681.541 111.623 681.541 106.81C681.541 100.983 683.187 95.885 686.481 91.515C689.774 87.0817 694.334 83.6617 700.161 81.255C705.987 78.785 712.764 77.55 720.491 77.55C728.217 77.55 735.121 78.8167 741.201 81.35C747.344 83.82 752.284 87.3033 756.021 91.8C759.757 96.2967 761.974 101.522 762.671 107.475L748.421 110.04C747.471 104.023 744.462 99.2733 739.396 95.79C734.392 92.2433 728.027 90.4067 720.301 90.28C713.017 90.09 707.096 91.4833 702.536 94.46C697.976 97.3733 695.696 101.268 695.696 106.145C695.696 108.868 696.519 111.212 698.166 113.175C699.812 115.075 702.789 116.88 707.096 118.59C711.466 120.3 717.672 122.168 725.716 124.195C735.152 126.602 742.562 129.135 747.946 131.795C753.329 134.455 757.161 137.59 759.441 141.2C761.721 144.81 762.861 149.275 762.861 154.595C762.861 164.285 759.251 171.917 752.031 177.49C744.874 183 734.994 185.755 722.391 185.755ZM822.215 185.755C810.182 185.755 800.27 183.158 792.48 177.965C784.753 172.772 780.003 165.552 778.23 156.305L792.48 153.93C794 159.757 797.452 164.412 802.835 167.895C808.282 171.315 814.995 173.025 822.975 173.025C830.765 173.025 836.908 171.41 841.405 168.18C845.902 164.887 848.15 160.422 848.15 154.785C848.15 151.618 847.422 149.053 845.965 147.09C844.572 145.063 841.69 143.195 837.32 141.485C832.95 139.775 826.427 137.748 817.75 135.405C808.44 132.872 801.157 130.338 795.9 127.805C790.643 125.272 786.907 122.358 784.69 119.065C782.473 115.708 781.365 111.623 781.365 106.81C781.365 100.983 783.012 95.885 786.305 91.515C789.598 87.0817 794.158 83.6617 799.985 81.255C805.812 78.785 812.588 77.55 820.315 77.55C828.042 77.55 834.945 78.8167 841.025 81.35C847.168 83.82 852.108 87.3033 855.845 91.8C859.582 96.2967 861.798 101.522 862.495 107.475L848.245 110.04C847.295 104.023 844.287 99.2733 839.22 95.79C834.217 92.2433 827.852 90.4067 820.125 90.28C812.842 90.09 806.92 91.4833 802.36 94.46C797.8 97.3733 795.52 101.268 795.52 106.145C795.52 108.868 796.343 111.212 797.99 113.175C799.637 115.075 802.613 116.88 806.92 118.59C811.29 120.3 817.497 122.168 825.54 124.195C834.977 126.602 842.387 129.135 847.77 131.795C853.153 134.455 856.985 137.59 859.265 141.2C861.545 144.81 862.685 149.275 862.685 154.595C862.685 164.285 859.075 171.917 851.855 177.49C844.698 183 834.818 185.755 822.215 185.755ZM885.654 183V46.2H899.619V169.605H964.599V183H885.654ZM1010.15 185.85C1002.42 185.85 995.932 184.457 990.675 181.67C985.482 178.883 981.587 175.178 978.99 170.555C976.393 165.932 975.095 160.897 975.095 155.45C975.095 149.877 976.203 145.127 978.42 141.2C980.7 137.21 983.772 133.948 987.635 131.415C991.562 128.882 996.09 126.95 1001.22 125.62C1006.41 124.353 1012.15 123.245 1018.42 122.295C1024.75 121.282 1030.92 120.427 1036.94 119.73C1043.02 118.97 1048.34 118.242 1052.9 117.545L1047.96 120.585C1048.15 110.452 1046.19 102.947 1042.07 98.07C1037.95 93.1933 1030.8 90.755 1020.6 90.755C1013.57 90.755 1007.62 92.3383 1002.74 95.505C997.927 98.6717 994.538 103.675 992.575 110.515L978.99 106.525C981.333 97.3417 986.052 90.2167 993.145 85.15C1000.24 80.0833 1009.45 77.55 1020.79 77.55C1030.16 77.55 1038.11 79.3233 1044.64 82.87C1051.22 86.3533 1055.88 91.42 1058.6 98.07C1059.87 101.047 1060.69 104.372 1061.07 108.045C1061.45 111.718 1061.64 115.455 1061.64 119.255V183H1049.2V157.255L1052.81 158.775C1049.32 167.578 1043.91 174.292 1036.56 178.915C1029.21 183.538 1020.41 185.85 1010.15 185.85ZM1011.77 173.785C1018.29 173.785 1023.99 172.613 1028.87 170.27C1033.74 167.927 1037.67 164.728 1040.65 160.675C1043.62 156.558 1045.55 151.935 1046.44 146.805C1047.2 143.512 1047.61 139.902 1047.68 135.975C1047.74 131.985 1047.77 129.008 1047.77 127.045L1053.09 129.8C1048.34 130.433 1043.18 131.067 1037.61 131.7C1032.1 132.333 1026.65 133.062 1021.27 133.885C1015.95 134.708 1011.13 135.69 1006.83 136.83C1003.91 137.653 1001.09 138.825 998.37 140.345C995.647 141.802 993.398 143.765 991.625 146.235C989.915 148.705 989.06 151.777 989.06 155.45C989.06 158.427 989.788 161.308 991.245 164.095C992.765 166.882 995.172 169.193 998.465 171.03C1001.82 172.867 1006.26 173.785 1011.77 173.785ZM1132.45 185.85C1123.01 185.85 1115.03 183.475 1108.51 178.725C1101.98 173.912 1097.04 167.42 1093.69 159.25C1090.33 151.017 1088.65 141.802 1088.65 131.605C1088.65 121.218 1090.33 111.972 1093.69 103.865C1097.11 95.695 1102.11 89.2667 1108.7 84.58C1115.28 79.8933 1123.39 77.55 1133.02 77.55C1142.39 77.55 1150.43 79.925 1157.15 84.675C1163.86 89.425 1168.99 95.885 1172.54 104.055C1176.15 112.225 1177.95 121.408 1177.95 131.605C1177.95 141.865 1176.15 151.08 1172.54 159.25C1168.93 167.42 1163.73 173.912 1156.96 178.725C1150.18 183.475 1142.01 185.85 1132.45 185.85ZM1086.28 183V46.2H1100.34V105.765H1098.82V183H1086.28ZM1131.02 172.835C1138.18 172.835 1144.13 171.03 1148.88 167.42C1153.63 163.81 1157.18 158.902 1159.52 152.695C1161.93 146.425 1163.13 139.395 1163.13 131.605C1163.13 123.878 1161.96 116.912 1159.62 110.705C1157.27 104.498 1153.69 99.59 1148.88 95.98C1144.13 92.37 1138.08 90.565 1130.74 90.565C1123.58 90.565 1117.63 92.3067 1112.88 95.79C1108.19 99.2733 1104.67 104.118 1102.33 110.325C1099.99 116.468 1098.82 123.562 1098.82 131.605C1098.82 139.522 1099.99 146.615 1102.33 152.885C1104.67 159.092 1108.22 163.968 1112.97 167.515C1117.72 171.062 1123.74 172.835 1131.02 172.835ZM1236.17 185.755C1224.14 185.755 1214.22 183.158 1206.43 177.965C1198.71 172.772 1193.96 165.552 1192.18 156.305L1206.43 153.93C1207.95 159.757 1211.41 164.412 1216.79 167.895C1222.24 171.315 1228.95 173.025 1236.93 173.025C1244.72 173.025 1250.86 171.41 1255.36 168.18C1259.86 164.887 1262.1 160.422 1262.1 154.785C1262.1 151.618 1261.38 149.053 1259.92 147.09C1258.53 145.063 1255.64 143.195 1251.27 141.485C1246.9 139.775 1240.38 137.748 1231.7 135.405C1222.39 132.872 1215.11 130.338 1209.85 127.805C1204.6 125.272 1200.86 122.358 1198.64 119.065C1196.43 115.708 1195.32 111.623 1195.32 106.81C1195.32 100.983 1196.97 95.885 1200.26 91.515C1203.55 87.0817 1208.11 83.6617 1213.94 81.255C1219.77 78.785 1226.54 77.55 1234.27 77.55C1242 77.55 1248.9 78.8167 1254.98 81.35C1261.12 83.82 1266.06 87.3033 1269.8 91.8C1273.54 96.2967 1275.75 101.522 1276.45 107.475L1262.2 110.04C1261.25 104.023 1258.24 99.2733 1253.17 95.79C1248.17 92.2433 1241.81 90.4067 1234.08 90.28C1226.8 90.09 1220.87 91.4833 1216.31 94.46C1211.75 97.3733 1209.47 101.268 1209.47 106.145C1209.47 108.868 1210.3 111.212 1211.94 113.175C1213.59 115.075 1216.57 116.88 1220.87 118.59C1225.24 120.3 1231.45 122.168 1239.49 124.195C1248.93 126.602 1256.34 129.135 1261.72 131.795C1267.11 134.455 1270.94 137.59 1273.22 141.2C1275.5 144.81 1276.64 149.275 1276.64 154.595C1276.64 164.285 1273.03 171.917 1265.81 177.49C1258.65 183 1248.77 185.755 1236.17 185.755Z" fill="white"/>
<path d="M497.136 266.26C493.132 266.26 489.73 265.196 486.93 263.068C484.13 260.94 481.988 258.07 480.504 254.458C479.048 250.818 478.32 246.744 478.32 242.236C478.32 237.644 479.062 233.556 480.546 229.972C482.03 226.36 484.214 223.532 487.098 221.488C490.01 219.416 493.58 218.38 497.808 218.38C501.868 218.38 505.312 219.444 508.14 221.572C510.996 223.672 513.166 226.528 514.65 230.14C516.134 233.752 516.876 237.784 516.876 242.236C516.876 246.772 516.12 250.86 514.608 254.5C513.096 258.112 510.87 260.982 507.93 263.11C505.018 265.21 501.42 266.26 497.136 266.26ZM477.732 265V204.52H481.26V229.3H481.008V265H477.732ZM497.136 262.732C500.636 262.732 503.562 261.836 505.914 260.044C508.294 258.252 510.086 255.816 511.29 252.736C512.494 249.628 513.096 246.128 513.096 242.236C513.096 238.372 512.508 234.914 511.332 231.862C510.184 228.782 508.434 226.36 506.082 224.596C503.73 222.804 500.748 221.908 497.136 221.908C493.608 221.908 490.64 222.776 488.232 224.512C485.852 226.248 484.046 228.656 482.814 231.736C481.61 234.788 481.008 238.288 481.008 242.236C481.008 246.128 481.61 249.628 482.814 252.736C484.018 255.816 485.81 258.252 488.19 260.044C490.598 261.836 493.58 262.732 497.136 262.732ZM526.97 265V203.26H530.498V265H526.97ZM543.95 209.896V204.52H547.478V209.896H543.95ZM543.95 265V219.64H547.478V265H543.95ZM576.639 266.176C571.515 266.176 567.259 265.112 563.871 262.984C560.483 260.828 558.383 257.86 557.571 254.08L561.183 253.408C561.939 256.208 563.703 258.448 566.475 260.128C569.275 261.808 572.691 262.648 576.723 262.648C580.839 262.648 584.101 261.766 586.509 260.002C588.945 258.238 590.163 255.844 590.163 252.82C590.163 251.168 589.799 249.824 589.071 248.788C588.343 247.724 586.915 246.758 584.787 245.89C582.687 245.022 579.579 244.028 575.463 242.908C571.151 241.732 567.791 240.598 565.383 239.506C563.003 238.386 561.323 237.14 560.343 235.768C559.391 234.368 558.915 232.66 558.915 230.644C558.915 228.236 559.629 226.108 561.057 224.26C562.485 222.412 564.459 220.97 566.979 219.934C569.499 218.898 572.411 218.38 575.715 218.38C579.047 218.38 582.043 218.94 584.703 220.06C587.391 221.152 589.547 222.692 591.171 224.68C592.823 226.64 593.775 228.908 594.027 231.484L590.415 232.156C589.883 228.992 588.259 226.5 585.543 224.68C582.855 222.832 579.495 221.908 575.463 221.908C571.683 221.852 568.589 222.622 566.181 224.218C563.801 225.814 562.611 227.9 562.611 230.476C562.611 231.904 563.017 233.136 563.829 234.172C564.641 235.18 566.055 236.104 568.071 236.944C570.087 237.784 572.887 238.652 576.471 239.548C581.007 240.696 584.535 241.858 587.055 243.034C589.603 244.21 591.381 245.582 592.389 247.15C593.425 248.718 593.943 250.664 593.943 252.988C593.943 257.104 592.403 260.338 589.323 262.69C586.243 265.014 582.015 266.176 576.639 266.176ZM619.787 266.176C614.663 266.176 610.407 265.112 607.019 262.984C603.631 260.828 601.531 257.86 600.719 254.08L604.331 253.408C605.087 256.208 606.851 258.448 609.623 260.128C612.423 261.808 615.839 262.648 619.871 262.648C623.987 262.648 627.249 261.766 629.657 260.002C632.093 258.238 633.311 255.844 633.311 252.82C633.311 251.168 632.947 249.824 632.219 248.788C631.491 247.724 630.063 246.758 627.935 245.89C625.835 245.022 622.727 244.028 618.611 242.908C614.299 241.732 610.939 240.598 608.531 239.506C606.151 238.386 604.471 237.14 603.491 235.768C602.539 234.368 602.063 232.66 602.063 230.644C602.063 228.236 602.777 226.108 604.205 224.26C605.633 222.412 607.607 220.97 610.127 219.934C612.647 218.898 615.559 218.38 618.863 218.38C622.195 218.38 625.191 218.94 627.851 220.06C630.539 221.152 632.695 222.692 634.319 224.68C635.971 226.64 636.923 228.908 637.175 231.484L633.563 232.156C633.031 228.992 631.407 226.5 628.691 224.68C626.003 222.832 622.643 221.908 618.611 221.908C614.831 221.852 611.737 222.622 609.329 224.218C606.949 225.814 605.759 227.9 605.759 230.476C605.759 231.904 606.165 233.136 606.977 234.172C607.789 235.18 609.203 236.104 611.219 236.944C613.235 237.784 616.035 238.652 619.619 239.548C624.155 240.696 627.683 241.858 630.203 243.034C632.751 244.21 634.529 245.582 635.537 247.15C636.573 248.718 637.091 250.664 637.091 252.988C637.091 257.104 635.551 260.338 632.471 262.69C629.391 265.014 625.163 266.176 619.787 266.176ZM647.228 265V203.26H650.756V265H647.228ZM676.556 266.26C673.028 266.26 670.102 265.644 667.778 264.412C665.454 263.18 663.718 261.556 662.57 259.54C661.422 257.524 660.848 255.34 660.848 252.988C660.848 250.328 661.422 248.13 662.57 246.394C663.746 244.63 665.272 243.244 667.148 242.236C669.024 241.228 671.04 240.5 673.196 240.052C675.828 239.52 678.642 239.058 681.638 238.666C684.662 238.246 687.448 237.896 689.996 237.616C692.544 237.336 694.448 237.112 695.708 236.944L694.448 237.784C694.588 232.436 693.608 228.46 691.508 225.856C689.436 223.224 685.768 221.908 680.504 221.908C676.696 221.908 673.63 222.762 671.306 224.47C669.01 226.15 667.4 228.74 666.476 232.24L662.612 231.232C663.62 227.032 665.678 223.84 668.786 221.656C671.922 219.472 675.884 218.38 680.672 218.38C684.872 218.38 688.372 219.234 691.172 220.942C693.972 222.65 695.876 224.96 696.884 227.872C697.276 228.992 697.556 230.35 697.724 231.946C697.892 233.542 697.976 235.096 697.976 236.608V265H694.7V252.568L696.38 252.652C695.176 256.964 692.782 260.31 689.198 262.69C685.614 265.07 681.4 266.26 676.556 266.26ZM676.388 262.732C679.664 262.732 682.548 262.144 685.04 260.968C687.56 259.792 689.59 258.098 691.13 255.886C692.698 253.646 693.692 250.972 694.112 247.864C694.336 246.296 694.448 244.616 694.448 242.824C694.448 241.032 694.448 239.744 694.448 238.96L696.296 240.388C694.812 240.528 692.754 240.724 690.122 240.976C687.518 241.2 684.76 241.508 681.848 241.9C678.936 242.264 676.304 242.74 673.952 243.328C672.58 243.664 671.166 244.196 669.71 244.924C668.254 245.652 667.022 246.674 666.014 247.99C665.034 249.306 664.544 251 664.544 253.072C664.544 254.528 664.908 255.998 665.636 257.482C666.364 258.966 667.582 260.212 669.29 261.22C671.026 262.228 673.392 262.732 676.388 262.732ZM728.3 266.26C724.296 266.26 720.894 265.196 718.094 263.068C715.294 260.94 713.152 258.07 711.668 254.458C710.212 250.818 709.484 246.744 709.484 242.236C709.484 237.644 710.226 233.556 711.71 229.972C713.194 226.36 715.378 223.532 718.262 221.488C721.174 219.416 724.744 218.38 728.972 218.38C733.032 218.38 736.476 219.444 739.304 221.572C742.16 223.672 744.33 226.528 745.814 230.14C747.298 233.752 748.04 237.784 748.04 242.236C748.04 246.772 747.284 250.86 745.772 254.5C744.26 258.112 742.034 260.982 739.094 263.11C736.182 265.21 732.584 266.26 728.3 266.26ZM708.896 265V204.52H712.424V229.3H712.172V265H708.896ZM728.3 262.732C731.8 262.732 734.726 261.836 737.078 260.044C739.458 258.252 741.25 255.816 742.454 252.736C743.658 249.628 744.26 246.128 744.26 242.236C744.26 238.372 743.672 234.914 742.496 231.862C741.348 228.782 739.598 226.36 737.246 224.596C734.894 222.804 731.912 221.908 728.3 221.908C724.772 221.908 721.804 222.776 719.396 224.512C717.016 226.248 715.21 228.656 713.978 231.736C712.774 234.788 712.172 238.288 712.172 242.236C712.172 246.128 712.774 249.628 713.978 252.736C715.182 255.816 716.974 258.252 719.354 260.044C721.762 261.836 724.744 262.732 728.3 262.732ZM773.842 266.176C768.718 266.176 764.462 265.112 761.074 262.984C757.686 260.828 755.586 257.86 754.774 254.08L758.386 253.408C759.142 256.208 760.906 258.448 763.678 260.128C766.478 261.808 769.894 262.648 773.926 262.648C778.042 262.648 781.304 261.766 783.712 260.002C786.148 258.238 787.366 255.844 787.366 252.82C787.366 251.168 787.002 249.824 786.274 248.788C785.546 247.724 784.118 246.758 781.99 245.89C779.89 245.022 776.782 244.028 772.666 242.908C768.354 241.732 764.994 240.598 762.586 239.506C760.206 238.386 758.526 237.14 757.546 235.768C756.594 234.368 756.118 232.66 756.118 230.644C756.118 228.236 756.832 226.108 758.26 224.26C759.688 222.412 761.662 220.97 764.182 219.934C766.702 218.898 769.614 218.38 772.918 218.38C776.25 218.38 779.246 218.94 781.906 220.06C784.594 221.152 786.75 222.692 788.374 224.68C790.026 226.64 790.978 228.908 791.23 231.484L787.618 232.156C787.086 228.992 785.462 226.5 782.746 224.68C780.058 222.832 776.698 221.908 772.666 221.908C768.886 221.852 765.792 222.622 763.384 224.218C761.004 225.814 759.814 227.9 759.814 230.476C759.814 231.904 760.22 233.136 761.032 234.172C761.844 235.18 763.258 236.104 765.274 236.944C767.29 237.784 770.09 238.652 773.674 239.548C778.21 240.696 781.738 241.858 784.258 243.034C786.806 244.21 788.584 245.582 789.592 247.15C790.628 248.718 791.146 250.664 791.146 252.988C791.146 257.104 789.606 260.338 786.526 262.69C783.446 265.014 779.218 266.176 773.842 266.176ZM801.283 265V259.96H806.323V265H801.283ZM837.128 266.26C832.648 266.26 828.868 265.238 825.788 263.194C822.708 261.15 820.37 258.322 818.774 254.71C817.178 251.098 816.38 246.94 816.38 242.236C816.38 237.476 817.192 233.304 818.816 229.72C820.44 226.136 822.792 223.35 825.872 221.362C828.98 219.374 832.732 218.38 837.128 218.38C841.636 218.38 845.43 219.402 848.51 221.446C851.59 223.462 853.914 226.262 855.482 229.846C857.078 233.43 857.876 237.56 857.876 242.236C857.876 247.024 857.078 251.224 855.482 254.836C853.886 258.42 851.534 261.22 848.426 263.236C845.346 265.252 841.58 266.26 837.128 266.26ZM837.128 262.732C842.84 262.732 847.096 260.842 849.896 257.062C852.696 253.254 854.096 248.312 854.096 242.236C854.096 236.048 852.682 231.12 849.854 227.452C847.054 223.756 842.812 221.908 837.128 221.908C833.292 221.908 830.114 222.776 827.594 224.512C825.102 226.248 823.24 228.642 822.008 231.694C820.776 234.746 820.16 238.26 820.16 242.236C820.16 248.396 821.588 253.352 824.444 257.104C827.328 260.856 831.556 262.732 837.128 262.732ZM867.134 265V219.64H870.41V230.476L869.318 229.048C869.794 227.816 870.396 226.668 871.124 225.604C871.852 224.54 872.566 223.672 873.266 223C874.498 221.796 875.954 220.886 877.634 220.27C879.342 219.626 881.05 219.262 882.758 219.178C884.466 219.066 885.978 219.22 887.294 219.64V223C885.418 222.58 883.43 222.51 881.33 222.79C879.23 223.042 877.27 224.008 875.45 225.688C873.854 227.172 872.72 228.88 872.048 230.812C871.404 232.744 871.012 234.746 870.872 236.818C870.732 238.862 870.662 240.808 870.662 242.656V265H867.134ZM910.934 286.42C908.75 286.42 906.552 286.112 904.34 285.496C902.128 284.88 900.042 283.83 898.082 282.346C896.15 280.89 894.498 278.888 893.126 276.34L896.234 274.24C897.746 277.348 899.874 279.546 902.618 280.834C905.362 282.15 908.134 282.808 910.934 282.808C914.994 282.808 918.158 282.038 920.426 280.498C922.722 278.986 924.332 276.718 925.256 273.694C926.18 270.698 926.642 266.96 926.642 262.48V250.888H926.978V219.64H930.254V262.48C930.254 263.852 930.226 265.182 930.17 266.47C930.114 267.758 930.002 269.032 929.834 270.292C929.386 273.96 928.406 276.984 926.894 279.364C925.41 281.744 923.352 283.508 920.72 284.656C918.088 285.832 914.826 286.42 910.934 286.42ZM910.85 266.26C906.566 266.26 902.954 265.21 900.014 263.11C897.102 260.982 894.89 258.112 893.378 254.5C891.866 250.86 891.11 246.772 891.11 242.236C891.11 237.784 891.852 233.752 893.336 230.14C894.82 226.528 896.976 223.672 899.804 221.572C902.66 219.444 906.118 218.38 910.178 218.38C914.406 218.38 917.962 219.416 920.846 221.488C923.758 223.532 925.956 226.36 927.44 229.972C928.924 233.556 929.666 237.644 929.666 242.236C929.666 246.744 928.924 250.818 927.44 254.458C925.984 258.07 923.856 260.94 921.056 263.068C918.256 265.196 914.854 266.26 910.85 266.26ZM910.85 262.732C914.406 262.732 917.374 261.836 919.754 260.044C922.162 258.252 923.968 255.816 925.172 252.736C926.376 249.628 926.978 246.128 926.978 242.236C926.978 238.288 926.362 234.788 925.13 231.736C923.926 228.656 922.12 226.248 919.712 224.512C917.332 222.776 914.378 221.908 910.85 221.908C907.238 221.908 904.242 222.804 901.862 224.596C899.51 226.36 897.76 228.782 896.612 231.862C895.464 234.914 894.89 238.372 894.89 242.236C894.89 246.128 895.492 249.628 896.696 252.736C897.9 255.816 899.678 258.252 902.03 260.044C904.41 261.836 907.35 262.732 910.85 262.732Z" fill="white"/>
<path d="M230.607 80.5924C234.952 68.8814 240.342 57.5265 247.096 47C259.104 65.8553 267.037 87.1049 271.652 108.916C273.269 117.04 274.633 125.244 275.24 133.504C267.509 147.354 260.907 161.874 256.073 176.989C251.795 189.996 248.898 203.436 247.079 217C243.373 187.665 233.487 159.246 218.935 133.536C220.434 115.485 224.426 97.6264 230.607 80.5924Z" fill="white"/>
<path d="M334.936 145.98C342.505 120.504 345.633 93.4579 342.256 67C327.467 76.5324 314.325 88.5191 302.897 101.924C288.059 119.393 276.165 139.333 267.398 160.543C254.888 190.869 248.7 224.199 251.977 257C266.849 234.987 286.661 216.608 308.836 202.235C309.385 201.908 309.851 201.451 310.167 200.881C320.797 183.801 329.147 165.281 334.936 145.98Z" fill="white"/>
<path d="M403.936 111C381.814 115.899 360.846 125.339 341.931 137.615C336.706 158.427 328.376 178.472 317.468 197C335.823 186.532 355.638 178.518 376.182 173.401C389.041 154.434 398.863 133.311 403.936 111Z" fill="white"/>
<path d="M448.175 172.388C428.374 169.787 408.17 170.974 388.605 174.84C363.058 179.971 338.506 189.779 316.245 203.315C291.272 218.592 268.994 238.843 253.12 263.623C275.617 266.537 298.568 264.68 320.576 259.429C340.612 254.618 359.941 246.917 377.921 236.873C405.81 221.171 430.801 199.507 448.175 172.388Z" fill="white"/>
<path d="M159.225 145.98C151.656 120.504 148.545 93.4579 151.922 67C166.695 76.5324 179.855 88.5191 191.267 101.924C206.107 119.393 218.002 139.333 226.786 160.543C239.28 190.869 245.485 224.199 242.191 257C227.318 234.987 207.505 216.608 185.345 202.235C184.779 201.908 184.313 201.451 183.997 200.881C173.366 183.801 165.015 165.281 159.225 145.98Z" fill="white"/>
<path d="M90.2393 111C112.373 115.899 133.321 125.339 152.249 137.615C157.456 158.427 165.784 178.472 176.707 197C158.355 186.532 138.544 178.518 117.988 173.401C105.148 154.434 95.3106 133.311 90.2393 111Z" fill="white"/>
<path d="M46 172.388C65.8004 169.787 86.0051 170.974 105.57 174.84C131.116 179.971 155.669 189.779 177.93 203.315C202.903 218.592 225.181 238.843 241.055 263.623C218.558 266.537 195.607 264.68 173.599 259.429C153.562 254.618 134.251 246.917 116.253 236.873C88.3643 221.171 63.3738 199.507 46 172.388Z" fill="white"/>
</svg>
