<svg width="1319" height="323" viewBox="0 0 1319 323" fill="none" xmlns="http://www.w3.org/2000/svg">
<path d="M389.243 188V51.2H442.063C449.727 51.2 456.408 52.7833 462.108 55.95C467.808 59.1167 472.242 63.3917 475.408 68.775C478.575 74.095 480.158 79.985 480.158 86.445C480.158 93.7917 478.195 100.347 474.268 106.11C470.342 111.81 465.085 115.768 458.498 117.985L458.308 113.33C467.175 115.863 474.142 120.297 479.208 126.63C484.275 132.963 486.808 140.627 486.808 149.62C486.808 157.537 485.13 164.377 481.773 170.14C478.417 175.84 473.698 180.242 467.618 183.345C461.538 186.448 454.477 188 446.433 188H389.243ZM403.303 174.605H443.013C448.587 174.605 453.59 173.623 458.023 171.66C462.457 169.633 465.94 166.783 468.473 163.11C471.07 159.437 472.368 155.003 472.368 149.81C472.368 144.743 471.197 140.183 468.853 136.13C466.51 132.077 463.312 128.847 459.258 126.44C455.268 123.97 450.708 122.735 445.578 122.735H403.303V174.605ZM403.303 109.53H441.968C446.338 109.53 450.328 108.548 453.938 106.585C457.548 104.558 460.398 101.803 462.488 98.32C464.642 94.8367 465.718 90.815 465.718 86.255C465.718 79.795 463.47 74.5383 458.973 70.485C454.54 66.4317 448.872 64.405 441.968 64.405H403.303V109.53ZM507.667 188V48.35H521.632V188H507.667ZM552.013 65.925V50.25H565.978V65.925H552.013ZM552.013 188V85.4H565.978V188H552.013ZM632.743 190.755C620.71 190.755 610.798 188.158 603.008 182.965C595.282 177.772 590.532 170.552 588.758 161.305L603.008 158.93C604.528 164.757 607.98 169.412 613.363 172.895C618.81 176.315 625.523 178.025 633.503 178.025C641.293 178.025 647.437 176.41 651.933 173.18C656.43 169.887 658.678 165.422 658.678 159.785C658.678 156.618 657.95 154.053 656.493 152.09C655.1 150.063 652.218 148.195 647.848 146.485C643.478 144.775 636.955 142.748 628.278 140.405C618.968 137.872 611.685 135.338 606.428 132.805C601.172 130.272 597.435 127.358 595.218 124.065C593.002 120.708 591.893 116.623 591.893 111.81C591.893 105.983 593.54 100.885 596.833 96.515C600.127 92.0817 604.687 88.6617 610.513 86.255C616.34 83.785 623.117 82.55 630.843 82.55C638.57 82.55 645.473 83.8167 651.553 86.35C657.697 88.82 662.637 92.3033 666.373 96.8C670.11 101.297 672.327 106.522 673.023 112.475L658.773 115.04C657.823 109.023 654.815 104.273 649.748 100.79C644.745 97.2433 638.38 95.4067 630.653 95.28C623.37 95.09 617.448 96.4833 612.888 99.46C608.328 102.373 606.048 106.268 606.048 111.145C606.048 113.868 606.872 116.212 608.518 118.175C610.165 120.075 613.142 121.88 617.448 123.59C621.818 125.3 628.025 127.168 636.068 129.195C645.505 131.602 652.915 134.135 658.298 136.795C663.682 139.455 667.513 142.59 669.793 146.2C672.073 149.81 673.213 154.275 673.213 159.595C673.213 169.285 669.603 176.917 662.383 182.49C655.227 188 645.347 190.755 632.743 190.755ZM732.568 190.755C720.534 190.755 710.623 188.158 702.833 182.965C695.106 177.772 690.356 170.552 688.583 161.305L702.833 158.93C704.353 164.757 707.804 169.412 713.188 172.895C718.634 176.315 725.348 178.025 733.328 178.025C741.118 178.025 747.261 176.41 751.758 173.18C756.254 169.887 758.503 165.422 758.503 159.785C758.503 156.618 757.774 154.053 756.318 152.09C754.924 150.063 752.043 148.195 747.673 146.485C743.303 144.775 736.779 142.748 728.103 140.405C718.793 137.872 711.509 135.338 706.253 132.805C700.996 130.272 697.259 127.358 695.043 124.065C692.826 120.708 691.718 116.623 691.718 111.81C691.718 105.983 693.364 100.885 696.658 96.515C699.951 92.0817 704.511 88.6617 710.338 86.255C716.164 83.785 722.941 82.55 730.668 82.55C738.394 82.55 745.298 83.8167 751.378 86.35C757.521 88.82 762.461 92.3033 766.198 96.8C769.934 101.297 772.151 106.522 772.848 112.475L758.598 115.04C757.648 109.023 754.639 104.273 749.573 100.79C744.569 97.2433 738.204 95.4067 730.478 95.28C723.194 95.09 717.273 96.4833 712.713 99.46C708.153 102.373 705.873 106.268 705.873 111.145C705.873 113.868 706.696 116.212 708.343 118.175C709.989 120.075 712.966 121.88 717.273 123.59C721.643 125.3 727.849 127.168 735.893 129.195C745.329 131.602 752.739 134.135 758.123 136.795C763.506 139.455 767.338 142.59 769.618 146.2C771.898 149.81 773.038 154.275 773.038 159.595C773.038 169.285 769.428 176.917 762.208 182.49C755.051 188 745.171 190.755 732.568 190.755ZM832.144 188V51.2H884.964C892.627 51.2 899.309 52.7833 905.009 55.95C910.709 59.1167 915.142 63.3917 918.309 68.775C921.476 74.095 923.059 79.985 923.059 86.445C923.059 93.7917 921.096 100.347 917.169 106.11C913.242 111.81 907.986 115.768 901.399 117.985L901.209 113.33C910.076 115.863 917.042 120.297 922.109 126.63C927.176 132.963 929.709 140.627 929.709 149.62C929.709 157.537 928.031 164.377 924.674 170.14C921.317 175.84 916.599 180.242 910.519 183.345C904.439 186.448 897.377 188 889.334 188H832.144ZM846.204 174.605H885.914C891.487 174.605 896.491 173.623 900.924 171.66C905.357 169.633 908.841 166.783 911.374 163.11C913.971 159.437 915.269 155.003 915.269 149.81C915.269 144.743 914.097 140.183 911.754 136.13C909.411 132.077 906.212 128.847 902.159 126.44C898.169 123.97 893.609 122.735 888.479 122.735H846.204V174.605ZM846.204 109.53H884.869C889.239 109.53 893.229 108.548 896.839 106.585C900.449 104.558 903.299 101.803 905.389 98.32C907.542 94.8367 908.619 90.815 908.619 86.255C908.619 79.795 906.371 74.5383 901.874 70.485C897.441 66.4317 891.772 64.405 884.869 64.405H846.204V109.53ZM978.022 190.85C970.296 190.85 963.804 189.457 958.547 186.67C953.354 183.883 949.459 180.178 946.862 175.555C944.266 170.932 942.967 165.897 942.967 160.45C942.967 154.877 944.076 150.127 946.292 146.2C948.572 142.21 951.644 138.948 955.507 136.415C959.434 133.882 963.962 131.95 969.092 130.62C974.286 129.353 980.017 128.245 986.287 127.295C992.621 126.282 998.796 125.427 1004.81 124.73C1010.89 123.97 1016.21 123.242 1020.77 122.545L1015.83 125.585C1016.02 115.452 1014.06 107.947 1009.94 103.07C1005.83 98.1933 998.669 95.755 988.472 95.755C981.442 95.755 975.489 97.3383 970.612 100.505C965.799 103.672 962.411 108.675 960.447 115.515L946.862 111.525C949.206 102.342 953.924 95.2167 961.017 90.15C968.111 85.0833 977.326 82.55 988.662 82.55C998.036 82.55 1005.98 84.3233 1012.51 87.87C1019.09 91.3533 1023.75 96.42 1026.47 103.07C1027.74 106.047 1028.56 109.372 1028.94 113.045C1029.32 116.718 1029.51 120.455 1029.51 124.255V188H1017.07V162.255L1020.68 163.775C1017.19 172.578 1011.78 179.292 1004.43 183.915C997.086 188.538 988.282 190.85 978.022 190.85ZM979.637 178.785C986.161 178.785 991.861 177.613 996.737 175.27C1001.61 172.927 1005.54 169.728 1008.52 165.675C1011.49 161.558 1013.43 156.935 1014.31 151.805C1015.07 148.512 1015.48 144.902 1015.55 140.975C1015.61 136.985 1015.64 134.008 1015.64 132.045L1020.96 134.8C1016.21 135.433 1011.05 136.067 1005.48 136.7C999.967 137.333 994.521 138.062 989.137 138.885C983.817 139.708 979.004 140.69 974.697 141.83C971.784 142.653 968.966 143.825 966.242 145.345C963.519 146.802 961.271 148.765 959.497 151.235C957.787 153.705 956.932 156.777 956.932 160.45C956.932 163.427 957.661 166.308 959.117 169.095C960.637 171.882 963.044 174.193 966.337 176.03C969.694 177.867 974.127 178.785 979.637 178.785ZM1092.53 190.755C1080.5 190.755 1070.58 188.158 1062.79 182.965C1055.07 177.772 1050.32 170.552 1048.54 161.305L1062.79 158.93C1064.31 164.757 1067.77 169.412 1073.15 172.895C1078.6 176.315 1085.31 178.025 1093.29 178.025C1101.08 178.025 1107.22 176.41 1111.72 173.18C1116.22 169.887 1118.46 165.422 1118.46 159.785C1118.46 156.618 1117.74 154.053 1116.28 152.09C1114.89 150.063 1112 148.195 1107.63 146.485C1103.26 144.775 1096.74 142.748 1088.06 140.405C1078.75 137.872 1071.47 135.338 1066.21 132.805C1060.96 130.272 1057.22 127.358 1055 124.065C1052.79 120.708 1051.68 116.623 1051.68 111.81C1051.68 105.983 1053.33 100.885 1056.62 96.515C1059.91 92.0817 1064.47 88.6617 1070.3 86.255C1076.13 83.785 1082.9 82.55 1090.63 82.55C1098.36 82.55 1105.26 83.8167 1111.34 86.35C1117.48 88.82 1122.42 92.3033 1126.16 96.8C1129.9 101.297 1132.11 106.522 1132.81 112.475L1118.56 115.04C1117.61 109.023 1114.6 104.273 1109.53 100.79C1104.53 97.2433 1098.17 95.4067 1090.44 95.28C1083.16 95.09 1077.23 96.4833 1072.67 99.46C1068.11 102.373 1065.83 106.268 1065.83 111.145C1065.83 113.868 1066.66 116.212 1068.3 118.175C1069.95 120.075 1072.93 121.88 1077.23 123.59C1081.6 125.3 1087.81 127.168 1095.85 129.195C1105.29 131.602 1112.7 134.135 1118.08 136.795C1123.47 139.455 1127.3 142.59 1129.58 146.2C1131.86 149.81 1133 154.275 1133 159.595C1133 169.285 1129.39 176.917 1122.17 182.49C1115.01 188 1105.13 190.755 1092.53 190.755ZM1192.35 190.755C1180.32 190.755 1170.41 188.158 1162.62 182.965C1154.89 177.772 1150.14 170.552 1148.37 161.305L1162.62 158.93C1164.14 164.757 1167.59 169.412 1172.97 172.895C1178.42 176.315 1185.13 178.025 1193.11 178.025C1200.9 178.025 1207.05 176.41 1211.54 173.18C1216.04 169.887 1218.29 165.422 1218.29 159.785C1218.29 156.618 1217.56 154.053 1216.1 152.09C1214.71 150.063 1211.83 148.195 1207.46 146.485C1203.09 144.775 1196.56 142.748 1187.89 140.405C1178.58 137.872 1171.29 135.338 1166.04 132.805C1160.78 130.272 1157.04 127.358 1154.83 124.065C1152.61 120.708 1151.5 116.623 1151.5 111.81C1151.5 105.983 1153.15 100.885 1156.44 96.515C1159.74 92.0817 1164.3 88.6617 1170.12 86.255C1175.95 83.785 1182.73 82.55 1190.45 82.55C1198.18 82.55 1205.08 83.8167 1211.16 86.35C1217.31 88.82 1222.25 92.3033 1225.98 96.8C1229.72 101.297 1231.94 106.522 1232.63 112.475L1218.38 115.04C1217.43 109.023 1214.42 104.273 1209.36 100.79C1204.35 97.2433 1197.99 95.4067 1190.26 95.28C1182.98 95.09 1177.06 96.4833 1172.5 99.46C1167.94 102.373 1165.66 106.268 1165.66 111.145C1165.66 113.868 1166.48 116.212 1168.13 118.175C1169.77 120.075 1172.75 121.88 1177.06 123.59C1181.43 125.3 1187.63 127.168 1195.68 129.195C1205.11 131.602 1212.52 134.135 1217.91 136.795C1223.29 139.455 1227.12 142.59 1229.4 146.2C1231.68 149.81 1232.82 154.275 1232.82 159.595C1232.82 169.285 1229.21 176.917 1221.99 182.49C1214.84 188 1204.96 190.755 1192.35 190.755Z" fill="white"/>
<path d="M403.925 265.02C400.683 265.02 397.929 264.159 395.663 262.436C393.396 260.713 391.662 258.39 390.461 255.466C389.282 252.519 388.693 249.221 388.693 245.572C388.693 241.855 389.293 238.545 390.495 235.644C391.696 232.72 393.464 230.431 395.799 228.776C398.156 227.099 401.046 226.26 404.469 226.26C407.755 226.26 410.543 227.121 412.833 228.844C415.145 230.544 416.901 232.856 418.103 235.78C419.304 238.704 419.905 241.968 419.905 245.572C419.905 249.244 419.293 252.553 418.069 255.5C416.845 258.424 415.043 260.747 412.663 262.47C410.305 264.17 407.393 265.02 403.925 265.02ZM388.217 264V215.04H391.073V235.1H390.869V264H388.217ZM403.925 262.164C406.758 262.164 409.127 261.439 411.031 259.988C412.957 258.537 414.408 256.565 415.383 254.072C416.357 251.556 416.845 248.723 416.845 245.572C416.845 242.444 416.369 239.645 415.417 237.174C414.487 234.681 413.071 232.72 411.167 231.292C409.263 229.841 406.849 229.116 403.925 229.116C401.069 229.116 398.666 229.819 396.717 231.224C394.79 232.629 393.328 234.579 392.331 237.072C391.356 239.543 390.869 242.376 390.869 245.572C390.869 248.723 391.356 251.556 392.331 254.072C393.305 256.565 394.756 258.537 396.683 259.988C398.632 261.439 401.046 262.164 403.925 262.164ZM428.076 264V214.02H430.932V264H428.076ZM441.822 219.392V215.04H444.678V219.392H441.822ZM441.822 264V227.28H444.678V264H441.822ZM468.284 264.952C464.136 264.952 460.691 264.091 457.948 262.368C455.206 260.623 453.506 258.22 452.848 255.16L455.772 254.616C456.384 256.883 457.812 258.696 460.056 260.056C462.323 261.416 465.088 262.096 468.352 262.096C471.684 262.096 474.325 261.382 476.274 259.954C478.246 258.526 479.232 256.588 479.232 254.14C479.232 252.803 478.938 251.715 478.348 250.876C477.759 250.015 476.603 249.233 474.88 248.53C473.18 247.827 470.664 247.023 467.332 246.116C463.842 245.164 461.122 244.246 459.172 243.362C457.246 242.455 455.886 241.447 455.092 240.336C454.322 239.203 453.936 237.82 453.936 236.188C453.936 234.239 454.514 232.516 455.67 231.02C456.826 229.524 458.424 228.357 460.464 227.518C462.504 226.679 464.862 226.26 467.536 226.26C470.234 226.26 472.659 226.713 474.812 227.62C476.988 228.504 478.734 229.751 480.048 231.36C481.386 232.947 482.156 234.783 482.36 236.868L479.436 237.412C479.006 234.851 477.691 232.833 475.492 231.36C473.316 229.864 470.596 229.116 467.332 229.116C464.272 229.071 461.768 229.694 459.818 230.986C457.892 232.278 456.928 233.967 456.928 236.052C456.928 237.208 457.257 238.205 457.914 239.044C458.572 239.86 459.716 240.608 461.348 241.288C462.98 241.968 465.247 242.671 468.148 243.396C471.82 244.325 474.676 245.266 476.716 246.218C478.779 247.17 480.218 248.281 481.034 249.55C481.873 250.819 482.292 252.395 482.292 254.276C482.292 257.608 481.046 260.226 478.552 262.13C476.059 264.011 472.636 264.952 468.284 264.952ZM503.214 264.952C499.066 264.952 495.621 264.091 492.878 262.368C490.135 260.623 488.436 258.22 487.778 255.16L490.702 254.616C491.314 256.883 492.742 258.696 494.986 260.056C497.253 261.416 500.018 262.096 503.282 262.096C506.614 262.096 509.255 261.382 511.204 259.954C513.176 258.526 514.162 256.588 514.162 254.14C514.162 252.803 513.868 251.715 513.278 250.876C512.689 250.015 511.533 249.233 509.81 248.53C508.11 247.827 505.594 247.023 502.262 246.116C498.772 245.164 496.052 244.246 494.102 243.362C492.176 242.455 490.816 241.447 490.022 240.336C489.252 239.203 488.866 237.82 488.866 236.188C488.866 234.239 489.444 232.516 490.6 231.02C491.756 229.524 493.354 228.357 495.394 227.518C497.434 226.679 499.792 226.26 502.466 226.26C505.164 226.26 507.589 226.713 509.742 227.62C511.918 228.504 513.664 229.751 514.978 231.36C516.316 232.947 517.086 234.783 517.29 236.868L514.366 237.412C513.936 234.851 512.621 232.833 510.422 231.36C508.246 229.864 505.526 229.116 502.262 229.116C499.202 229.071 496.698 229.694 494.748 230.986C492.822 232.278 491.858 233.967 491.858 236.052C491.858 237.208 492.187 238.205 492.844 239.044C493.502 239.86 494.646 240.608 496.278 241.288C497.91 241.968 500.177 242.671 503.078 243.396C506.75 244.325 509.606 245.266 511.646 246.218C513.709 247.17 515.148 248.281 515.964 249.55C516.803 250.819 517.222 252.395 517.222 254.276C517.222 257.608 515.976 260.226 513.482 262.13C510.989 264.011 507.566 264.952 503.214 264.952ZM524.068 244.008V241.152H544.468V244.008H524.068ZM569.011 265.02C565.769 265.02 563.015 264.159 560.749 262.436C558.482 260.713 556.748 258.39 555.547 255.466C554.368 252.519 553.779 249.221 553.779 245.572C553.779 241.855 554.379 238.545 555.581 235.644C556.782 232.72 558.55 230.431 560.885 228.776C563.242 227.099 566.132 226.26 569.555 226.26C572.841 226.26 575.629 227.121 577.919 228.844C580.231 230.544 581.987 232.856 583.189 235.78C584.39 238.704 584.991 241.968 584.991 245.572C584.991 249.244 584.379 252.553 583.155 255.5C581.931 258.424 580.129 260.747 577.749 262.47C575.391 264.17 572.479 265.02 569.011 265.02ZM553.303 264V215.04H556.159V235.1H555.955V264H553.303ZM569.011 262.164C571.844 262.164 574.213 261.439 576.117 259.988C578.043 258.537 579.494 256.565 580.469 254.072C581.443 251.556 581.931 248.723 581.931 245.572C581.931 242.444 581.455 239.645 580.503 237.174C579.573 234.681 578.157 232.72 576.253 231.292C574.349 229.841 571.935 229.116 569.011 229.116C566.155 229.116 563.752 229.819 561.803 231.224C559.876 232.629 558.414 234.579 557.417 237.072C556.442 239.543 555.955 242.376 555.955 245.572C555.955 248.723 556.442 251.556 557.417 254.072C558.391 256.565 559.842 258.537 561.769 259.988C563.718 261.439 566.132 262.164 569.011 262.164ZM603.158 265.02C600.302 265.02 597.934 264.521 596.052 263.524C594.171 262.527 592.766 261.212 591.836 259.58C590.907 257.948 590.442 256.18 590.442 254.276C590.442 252.123 590.907 250.343 591.836 248.938C592.788 247.51 594.024 246.388 595.542 245.572C597.061 244.756 598.693 244.167 600.438 243.804C602.569 243.373 604.847 242.999 607.272 242.682C609.72 242.342 611.976 242.059 614.038 241.832C616.101 241.605 617.642 241.424 618.662 241.288L617.642 241.968C617.756 237.639 616.962 234.42 615.262 232.312C613.585 230.181 610.616 229.116 606.354 229.116C603.272 229.116 600.79 229.807 598.908 231.19C597.05 232.55 595.746 234.647 594.998 237.48L591.87 236.664C592.686 233.264 594.352 230.68 596.868 228.912C599.407 227.144 602.614 226.26 606.49 226.26C609.89 226.26 612.724 226.951 614.99 228.334C617.257 229.717 618.798 231.587 619.614 233.944C619.932 234.851 620.158 235.95 620.294 237.242C620.43 238.534 620.498 239.792 620.498 241.016V264H617.846V253.936L619.206 254.004C618.232 257.495 616.294 260.203 613.392 262.13C610.491 264.057 607.08 265.02 603.158 265.02ZM603.022 262.164C605.674 262.164 608.009 261.688 610.026 260.736C612.066 259.784 613.71 258.413 614.956 256.622C616.226 254.809 617.03 252.644 617.37 250.128C617.552 248.859 617.642 247.499 617.642 246.048C617.642 244.597 617.642 243.555 617.642 242.92L619.138 244.076C617.937 244.189 616.271 244.348 614.14 244.552C612.032 244.733 609.8 244.983 607.442 245.3C605.085 245.595 602.954 245.98 601.05 246.456C599.94 246.728 598.795 247.159 597.616 247.748C596.438 248.337 595.44 249.165 594.624 250.23C593.831 251.295 593.434 252.667 593.434 254.344C593.434 255.523 593.729 256.713 594.318 257.914C594.908 259.115 595.894 260.124 597.276 260.94C598.682 261.756 600.597 262.164 603.022 262.164ZM642.734 264.952C638.586 264.952 635.14 264.091 632.398 262.368C629.655 260.623 627.955 258.22 627.298 255.16L630.222 254.616C630.834 256.883 632.262 258.696 634.506 260.056C636.772 261.416 639.538 262.096 642.802 262.096C646.134 262.096 648.774 261.382 650.724 259.954C652.696 258.526 653.682 256.588 653.682 254.14C653.682 252.803 653.387 251.715 652.798 250.876C652.208 250.015 651.052 249.233 649.33 248.53C647.63 247.827 645.114 247.023 641.782 246.116C638.291 245.164 635.571 244.246 633.622 243.362C631.695 242.455 630.335 241.447 629.542 240.336C628.771 239.203 628.386 237.82 628.386 236.188C628.386 234.239 628.964 232.516 630.12 231.02C631.276 229.524 632.874 228.357 634.914 227.518C636.954 226.679 639.311 226.26 641.986 226.26C644.683 226.26 647.108 226.713 649.262 227.62C651.438 228.504 653.183 229.751 654.498 231.36C655.835 232.947 656.606 234.783 656.81 236.868L653.886 237.412C653.455 234.851 652.14 232.833 649.942 231.36C647.766 229.864 645.046 229.116 641.782 229.116C638.722 229.071 636.217 229.694 634.268 230.986C632.341 232.278 631.378 233.967 631.378 236.052C631.378 237.208 631.706 238.205 632.364 239.044C633.021 239.86 634.166 240.608 635.798 241.288C637.43 241.968 639.696 242.671 642.598 243.396C646.27 244.325 649.126 245.266 651.166 246.218C653.228 247.17 654.668 248.281 655.484 249.55C656.322 250.819 656.742 252.395 656.742 254.276C656.742 257.608 655.495 260.226 653.002 262.13C650.508 264.011 647.086 264.952 642.734 264.952ZM677.663 264.952C673.515 264.952 670.07 264.091 667.327 262.368C664.585 260.623 662.885 258.22 662.227 255.16L665.151 254.616C665.763 256.883 667.191 258.696 669.435 260.056C671.702 261.416 674.467 262.096 677.731 262.096C681.063 262.096 683.704 261.382 685.653 259.954C687.625 258.526 688.611 256.588 688.611 254.14C688.611 252.803 688.317 251.715 687.727 250.876C687.138 250.015 685.982 249.233 684.259 248.53C682.559 247.827 680.043 247.023 676.711 246.116C673.221 245.164 670.501 244.246 668.551 243.362C666.625 242.455 665.265 241.447 664.471 240.336C663.701 239.203 663.315 237.82 663.315 236.188C663.315 234.239 663.893 232.516 665.049 231.02C666.205 229.524 667.803 228.357 669.843 227.518C671.883 226.679 674.241 226.26 676.915 226.26C679.613 226.26 682.038 226.713 684.191 227.62C686.367 228.504 688.113 229.751 689.427 231.36C690.765 232.947 691.535 234.783 691.739 236.868L688.815 237.412C688.385 234.851 687.07 232.833 684.871 231.36C682.695 229.864 679.975 229.116 676.711 229.116C673.651 229.071 671.147 229.694 669.197 230.986C667.271 232.278 666.307 233.967 666.307 236.052C666.307 237.208 666.636 238.205 667.293 239.044C667.951 239.86 669.095 240.608 670.727 241.288C672.359 241.968 674.626 242.671 677.527 243.396C681.199 244.325 684.055 245.266 686.095 246.218C688.158 247.17 689.597 248.281 690.413 249.55C691.252 250.819 691.671 252.395 691.671 254.276C691.671 257.608 690.425 260.226 687.931 262.13C685.438 264.011 682.015 264.952 677.663 264.952ZM699.877 264V259.92H703.957V264H699.877ZM729.846 265.02C726.605 265.02 723.851 264.159 721.584 262.436C719.318 260.713 717.584 258.39 716.382 255.466C715.204 252.519 714.614 249.221 714.614 245.572C714.614 241.855 715.215 238.545 716.416 235.644C717.618 232.72 719.386 230.431 721.72 228.776C724.078 227.099 726.968 226.26 730.39 226.26C733.677 226.26 736.465 227.121 738.754 228.844C741.066 230.544 742.823 232.856 744.024 235.78C745.226 238.704 745.826 241.968 745.826 245.572C745.826 249.244 745.214 252.553 743.99 255.5C742.766 258.424 740.964 260.747 738.584 262.47C736.227 264.17 733.314 265.02 729.846 265.02ZM714.138 264V215.04H716.994V235.1H716.79V264H714.138ZM729.846 262.164C732.68 262.164 735.048 261.439 736.952 259.988C738.879 258.537 740.33 256.565 741.304 254.072C742.279 251.556 742.766 248.723 742.766 245.572C742.766 242.444 742.29 239.645 741.338 237.174C740.409 234.681 738.992 232.72 737.088 231.292C735.184 229.841 732.77 229.116 729.846 229.116C726.99 229.116 724.588 229.819 722.638 231.224C720.712 232.629 719.25 234.579 718.252 237.072C717.278 239.543 716.79 242.376 716.79 245.572C716.79 248.723 717.278 251.556 718.252 254.072C719.227 256.565 720.678 258.537 722.604 259.988C724.554 261.439 726.968 262.164 729.846 262.164ZM753.998 264V214.02H756.854V264H753.998ZM767.744 219.392V215.04H770.6V219.392H767.744ZM767.744 264V227.28H770.6V264H767.744ZM794.206 264.952C790.058 264.952 786.613 264.091 783.87 262.368C781.128 260.623 779.428 258.22 778.77 255.16L781.694 254.616C782.306 256.883 783.734 258.696 785.978 260.056C788.245 261.416 791.01 262.096 794.274 262.096C797.606 262.096 800.247 261.382 802.196 259.954C804.168 258.526 805.154 256.588 805.154 254.14C805.154 252.803 804.86 251.715 804.27 250.876C803.681 250.015 802.525 249.233 800.802 248.53C799.102 247.827 796.586 247.023 793.254 246.116C789.764 245.164 787.044 244.246 785.094 243.362C783.168 242.455 781.808 241.447 781.014 240.336C780.244 239.203 779.858 237.82 779.858 236.188C779.858 234.239 780.436 232.516 781.592 231.02C782.748 229.524 784.346 228.357 786.386 227.518C788.426 226.679 790.784 226.26 793.458 226.26C796.156 226.26 798.581 226.713 800.734 227.62C802.91 228.504 804.656 229.751 805.97 231.36C807.308 232.947 808.078 234.783 808.282 236.868L805.358 237.412C804.928 234.851 803.613 232.833 801.414 231.36C799.238 229.864 796.518 229.116 793.254 229.116C790.194 229.071 787.69 229.694 785.74 230.986C783.814 232.278 782.85 233.967 782.85 236.052C782.85 237.208 783.179 238.205 783.836 239.044C784.494 239.86 785.638 240.608 787.27 241.288C788.902 241.968 791.169 242.671 794.07 243.396C797.742 244.325 800.598 245.266 802.638 246.218C804.701 247.17 806.14 248.281 806.956 249.55C807.795 250.819 808.214 252.395 808.214 254.276C808.214 257.608 806.968 260.226 804.474 262.13C801.981 264.011 798.558 264.952 794.206 264.952ZM829.136 264.952C824.988 264.952 821.543 264.091 818.8 262.368C816.057 260.623 814.357 258.22 813.7 255.16L816.624 254.616C817.236 256.883 818.664 258.696 820.908 260.056C823.175 261.416 825.94 262.096 829.204 262.096C832.536 262.096 835.177 261.382 837.126 259.954C839.098 258.526 840.084 256.588 840.084 254.14C840.084 252.803 839.789 251.715 839.2 250.876C838.611 250.015 837.455 249.233 835.732 248.53C834.032 247.827 831.516 247.023 828.184 246.116C824.693 245.164 821.973 244.246 820.024 243.362C818.097 242.455 816.737 241.447 815.944 240.336C815.173 239.203 814.788 237.82 814.788 236.188C814.788 234.239 815.366 232.516 816.522 231.02C817.678 229.524 819.276 228.357 821.316 227.518C823.356 226.679 825.713 226.26 828.388 226.26C831.085 226.26 833.511 226.713 835.664 227.62C837.84 228.504 839.585 229.751 840.9 231.36C842.237 232.947 843.008 234.783 843.212 236.868L840.288 237.412C839.857 234.851 838.543 232.833 836.344 231.36C834.168 229.864 831.448 229.116 828.184 229.116C825.124 229.071 822.619 229.694 820.67 230.986C818.743 232.278 817.78 233.967 817.78 236.052C817.78 237.208 818.109 238.205 818.766 239.044C819.423 239.86 820.568 240.608 822.2 241.288C823.832 241.968 826.099 242.671 829 243.396C832.672 244.325 835.528 245.266 837.568 246.218C839.631 247.17 841.07 248.281 841.886 249.55C842.725 250.819 843.144 252.395 843.144 254.276C843.144 257.608 841.897 260.226 839.404 262.13C836.911 264.011 833.488 264.952 829.136 264.952ZM865.426 265.02C861.776 265.02 858.716 264.204 856.246 262.572C853.775 260.94 851.905 258.673 850.636 255.772C849.366 252.848 848.698 249.471 848.63 245.64C848.698 241.719 849.366 238.307 850.636 235.406C851.928 232.505 853.809 230.261 856.28 228.674C858.75 227.065 861.799 226.26 865.426 226.26C868.826 226.26 871.852 227.076 874.504 228.708C877.178 230.317 879.071 232.539 880.182 235.372L877.462 236.528C876.442 234.171 874.866 232.346 872.736 231.054C870.628 229.762 868.191 229.116 865.426 229.116C862.343 229.116 859.793 229.819 857.776 231.224C855.758 232.607 854.251 234.545 853.254 237.038C852.256 239.509 851.735 242.376 851.69 245.64C851.758 250.627 852.936 254.627 855.226 257.642C857.515 260.657 860.915 262.164 865.426 262.164C868.123 262.164 870.514 261.541 872.6 260.294C874.685 259.047 876.283 257.223 877.394 254.82L880.182 256.044C878.663 258.991 876.657 261.223 874.164 262.742C871.67 264.261 868.758 265.02 865.426 265.02ZM901.086 265.02C897.459 265.02 894.399 264.193 891.906 262.538C889.413 260.883 887.52 258.594 886.228 255.67C884.936 252.746 884.29 249.38 884.29 245.572C884.29 241.719 884.947 238.341 886.262 235.44C887.577 232.539 889.481 230.283 891.974 228.674C894.49 227.065 897.527 226.26 901.086 226.26C904.735 226.26 907.807 227.087 910.3 228.742C912.793 230.374 914.675 232.641 915.944 235.542C917.236 238.443 917.882 241.787 917.882 245.572C917.882 249.448 917.236 252.848 915.944 255.772C914.652 258.673 912.748 260.94 910.232 262.572C907.739 264.204 904.69 265.02 901.086 265.02ZM901.086 262.164C905.71 262.164 909.155 260.634 911.422 257.574C913.689 254.491 914.822 250.491 914.822 245.572C914.822 240.563 913.677 236.573 911.388 233.604C909.121 230.612 905.687 229.116 901.086 229.116C897.981 229.116 895.408 229.819 893.368 231.224C891.351 232.629 889.843 234.567 888.846 237.038C887.849 239.509 887.35 242.353 887.35 245.572C887.35 250.559 888.506 254.571 890.818 257.608C893.153 260.645 896.575 262.164 901.086 262.164ZM926.057 264V214.02H928.913V264H926.057ZM949.799 265.02C946.943 265.02 944.574 264.521 942.693 263.524C940.812 262.527 939.406 261.212 938.477 259.58C937.548 257.948 937.083 256.18 937.083 254.276C937.083 252.123 937.548 250.343 938.477 248.938C939.429 247.51 940.664 246.388 942.183 245.572C943.702 244.756 945.334 244.167 947.079 243.804C949.21 243.373 951.488 242.999 953.913 242.682C956.361 242.342 958.616 242.059 960.679 241.832C962.742 241.605 964.283 241.424 965.303 241.288L964.283 241.968C964.396 237.639 963.603 234.42 961.903 232.312C960.226 230.181 957.256 229.116 952.995 229.116C949.912 229.116 947.43 229.807 945.549 231.19C943.69 232.55 942.387 234.647 941.639 237.48L938.511 236.664C939.327 233.264 940.993 230.68 943.509 228.912C946.048 227.144 949.255 226.26 953.131 226.26C956.531 226.26 959.364 226.951 961.631 228.334C963.898 229.717 965.439 231.587 966.255 233.944C966.572 234.851 966.799 235.95 966.935 237.242C967.071 238.534 967.139 239.792 967.139 241.016V264H964.487V253.936L965.847 254.004C964.872 257.495 962.934 260.203 960.033 262.13C957.132 264.057 953.72 265.02 949.799 265.02ZM949.663 262.164C952.315 262.164 954.65 261.688 956.667 260.736C958.707 259.784 960.35 258.413 961.597 256.622C962.866 254.809 963.671 252.644 964.011 250.128C964.192 248.859 964.283 247.499 964.283 246.048C964.283 244.597 964.283 243.555 964.283 242.92L965.779 244.076C964.578 244.189 962.912 244.348 960.781 244.552C958.673 244.733 956.44 244.983 954.083 245.3C951.726 245.595 949.595 245.98 947.691 246.456C946.58 246.728 945.436 247.159 944.257 247.748C943.078 248.337 942.081 249.165 941.265 250.23C940.472 251.295 940.075 252.667 940.075 254.344C940.075 255.523 940.37 256.713 940.959 257.914C941.548 259.115 942.534 260.124 943.917 260.94C945.322 261.756 947.238 262.164 949.663 262.164ZM991.686 265.02C988.445 265.02 985.691 264.159 983.424 262.436C981.158 260.713 979.424 258.39 978.222 255.466C977.044 252.519 976.454 249.221 976.454 245.572C976.454 241.855 977.055 238.545 978.256 235.644C979.458 232.72 981.226 230.431 983.56 228.776C985.918 227.099 988.808 226.26 992.23 226.26C995.517 226.26 998.305 227.121 1000.59 228.844C1002.91 230.544 1004.66 232.856 1005.86 235.78C1007.07 238.704 1007.67 241.968 1007.67 245.572C1007.67 249.244 1007.05 252.553 1005.83 255.5C1004.61 258.424 1002.8 260.747 1000.42 262.47C998.067 264.17 995.154 265.02 991.686 265.02ZM975.978 264V215.04H978.834V235.1H978.63V264H975.978ZM991.686 262.164C994.52 262.164 996.888 261.439 998.792 259.988C1000.72 258.537 1002.17 256.565 1003.14 254.072C1004.12 251.556 1004.61 248.723 1004.61 245.572C1004.61 242.444 1004.13 239.645 1003.18 237.174C1002.25 234.681 1000.83 232.72 998.928 231.292C997.024 229.841 994.61 229.116 991.686 229.116C988.83 229.116 986.428 229.819 984.478 231.224C982.552 232.629 981.09 234.579 980.092 237.072C979.118 239.543 978.63 242.376 978.63 245.572C978.63 248.723 979.118 251.556 980.092 254.072C981.067 256.565 982.518 258.537 984.444 259.988C986.394 261.439 988.808 262.164 991.686 262.164ZM1028.55 264.952C1024.41 264.952 1020.96 264.091 1018.22 262.368C1015.48 260.623 1013.78 258.22 1013.12 255.16L1016.04 254.616C1016.65 256.883 1018.08 258.696 1020.33 260.056C1022.59 261.416 1025.36 262.096 1028.62 262.096C1031.95 262.096 1034.59 261.382 1036.54 259.954C1038.52 258.526 1039.5 256.588 1039.5 254.14C1039.5 252.803 1039.21 251.715 1038.62 250.876C1038.03 250.015 1036.87 249.233 1035.15 248.53C1033.45 247.827 1030.93 247.023 1027.6 246.116C1024.11 245.164 1021.39 244.246 1019.44 243.362C1017.52 242.455 1016.16 241.447 1015.36 240.336C1014.59 239.203 1014.21 237.82 1014.21 236.188C1014.21 234.239 1014.78 232.516 1015.94 231.02C1017.1 229.524 1018.69 228.357 1020.73 227.518C1022.77 226.679 1025.13 226.26 1027.81 226.26C1030.5 226.26 1032.93 226.713 1035.08 227.62C1037.26 228.504 1039 229.751 1040.32 231.36C1041.66 232.947 1042.43 234.783 1042.63 236.868L1039.71 237.412C1039.28 234.851 1037.96 232.833 1035.76 231.36C1033.59 229.864 1030.87 229.116 1027.6 229.116C1024.54 229.071 1022.04 229.694 1020.09 230.986C1018.16 232.278 1017.2 233.967 1017.2 236.052C1017.2 237.208 1017.53 238.205 1018.18 239.044C1018.84 239.86 1019.99 240.608 1021.62 241.288C1023.25 241.968 1025.52 242.671 1028.42 243.396C1032.09 244.325 1034.95 245.266 1036.99 246.218C1039.05 247.17 1040.49 248.281 1041.3 249.55C1042.14 250.819 1042.56 252.395 1042.56 254.276C1042.56 257.608 1041.32 260.226 1038.82 262.13C1036.33 264.011 1032.91 264.952 1028.55 264.952ZM1050.77 264V259.92H1054.85V264H1050.77ZM1078.97 265.02C1075.5 265.02 1072.58 264.17 1070.2 262.47C1067.84 260.747 1066.05 258.424 1064.83 255.5C1063.6 252.553 1062.99 249.244 1062.99 245.572C1062.99 241.968 1063.59 238.704 1064.79 235.78C1065.99 232.856 1067.74 230.544 1070.03 228.844C1072.34 227.121 1075.14 226.26 1078.43 226.26C1081.85 226.26 1084.73 227.099 1087.06 228.776C1089.42 230.431 1091.2 232.72 1092.4 235.644C1093.6 238.545 1094.2 241.855 1094.2 245.572C1094.2 249.221 1093.6 252.519 1092.4 255.466C1091.22 258.39 1089.5 260.713 1087.23 262.436C1084.96 264.159 1082.21 265.02 1078.97 265.02ZM1078.97 262.164C1081.85 262.164 1084.25 261.439 1086.18 259.988C1088.13 258.537 1089.59 256.565 1090.56 254.072C1091.54 251.556 1092.03 248.723 1092.03 245.572C1092.03 242.376 1091.53 239.543 1090.53 237.072C1089.55 234.579 1088.09 232.629 1086.14 231.224C1084.22 229.819 1081.83 229.116 1078.97 229.116C1076.05 229.116 1073.62 229.841 1071.69 231.292C1069.79 232.72 1068.37 234.681 1067.44 237.174C1066.51 239.645 1066.05 242.444 1066.05 245.572C1066.05 248.723 1066.54 251.556 1067.51 254.072C1068.49 256.565 1069.93 258.537 1071.83 259.988C1073.76 261.439 1076.14 262.164 1078.97 262.164ZM1092.03 264V235.1H1091.82V215.04H1094.68V264H1092.03ZM1118.96 265.02C1115.5 265.02 1112.5 264.238 1109.99 262.674C1107.5 261.11 1105.57 258.877 1104.21 255.976C1102.85 253.075 1102.17 249.629 1102.17 245.64C1102.17 241.628 1102.84 238.171 1104.17 235.27C1105.53 232.369 1107.46 230.147 1109.95 228.606C1112.47 227.042 1115.47 226.26 1118.96 226.26C1122.48 226.26 1125.48 227.053 1127.97 228.64C1130.47 230.227 1132.37 232.527 1133.69 235.542C1135.02 238.557 1135.69 242.195 1135.69 246.456H1132.63V245.504C1132.5 240.223 1131.25 236.177 1128.89 233.366C1126.56 230.533 1123.25 229.116 1118.96 229.116C1114.61 229.116 1111.24 230.567 1108.83 233.468C1106.43 236.347 1105.23 240.404 1105.23 245.64C1105.23 250.876 1106.43 254.945 1108.83 257.846C1111.24 260.725 1114.61 262.164 1118.96 262.164C1122 262.164 1124.67 261.45 1126.95 260.022C1129.24 258.594 1131.07 256.543 1132.43 253.868L1134.81 255.228C1133.31 258.356 1131.19 260.77 1128.45 262.47C1125.71 264.17 1122.55 265.02 1118.96 265.02ZM1104 246.456V243.6H1133.92V246.456H1104ZM1151.79 264L1138.46 227.28H1141.45L1153.35 259.852L1165.19 227.28H1168.25L1154.92 264H1151.79Z" fill="white"/>
<path d="M146.447 59.0078C146.447 135.492 146.448 211.555 146.444 287.617C146.444 297.179 142.434 302.338 133.358 304.808C125.569 306.928 116.205 300.004 116.065 292.043C116.048 291.06 116.061 290.075 116.061 289.091C116.061 203.89 116.165 118.688 115.933 33.4879C115.903 22.5874 123.042 17.0466 130.679 17.0004C139.728 16.9456 146.033 23.1409 146.39 33.7023C146.671 41.9879 146.446 50.2906 146.447 59.0078Z" fill="#00A0C6"/>
<path d="M159.107 244.691C159.107 185.775 159.203 127.28 159.004 68.7865C158.974 59.9474 166.502 53.7874 173.895 53.8906C182.049 54.0044 188.782 60.0486 188.754 68.722C188.555 130.309 188.552 191.898 188.756 253.485C188.785 262.234 182.053 268.233 173.959 268.38C166.519 268.516 158.421 262.328 159.074 253.546C159.283 250.75 159.107 247.924 159.107 244.691Z" fill="#00A0C6"/>
<path d="M73.0158 145.943C73.0159 126.545 73.0313 107.57 73.0072 88.5944C72.9992 82.2456 75.4569 77.1057 81.0766 74.1638C87.0953 71.0131 93.4507 71.3789 98.4169 76.0953C100.884 78.4379 103.174 82.4163 103.193 85.6685C103.49 135.987 103.411 186.308 103.385 236.628C103.382 241.974 97.832 248.45 92.3997 249.702C86.056 251.163 78.3886 248.391 75.6779 243.05C74.232 240.201 73.1486 236.807 73.128 233.652C72.9378 204.557 73.0159 175.461 73.0158 145.943Z" fill="#00A0C6"/>
<path d="M275.583 121.466C275.583 159.697 275.472 197.507 275.683 235.316C275.722 242.402 269.482 248.899 263.782 249.698C254.605 250.983 247.824 246.615 246.067 238.545C245.572 236.27 245.236 233.909 245.234 231.587C245.186 184.22 245.221 136.852 245.179 89.4853C245.17 79.6414 251.317 71.6133 262.043 72.4283C268.931 72.9517 275.551 79.1274 275.573 86.0456C275.61 97.7116 275.583 109.378 275.583 121.466Z" fill="#00A0C6"/>
<path d="M202.929 102.992C204.554 95.0662 210.365 89.7031 220.796 91.1158C227.28 91.994 232.671 98.5463 232.634 105.388C232.431 142.503 232.422 179.621 232.64 216.736C232.681 223.694 227.361 230.247 220.94 231.128C210.868 232.51 204.968 228.01 203.017 219.775C202.513 217.647 202.191 215.42 202.188 213.238C202.138 178.23 202.143 143.223 202.184 108.215C202.185 106.594 202.638 104.972 202.929 102.992Z" fill="#00A0C6"/>
<path d="M288.244 178.86C288.244 160.997 288.365 143.554 288.187 126.114C288.111 118.658 292.175 110.502 301.297 109.364C310.283 108.242 318.369 114.189 318.488 122.319C318.867 148.194 318.69 174.079 318.586 199.96C318.558 206.847 312.334 212.4 304.105 213.425C298.329 214.144 289.901 208.604 289.239 202.693C288.372 194.95 288.528 187.091 288.244 178.86Z" fill="#00A0C6"/>
<path d="M333.962 190.687C330.51 187.387 329.576 183.198 329.59 178.62C329.624 167.099 329.456 155.576 329.639 144.057C329.856 130.364 342.023 126.106 350.424 129.07C355.772 130.956 359.956 136.661 359.974 142.425C360.014 154.929 359.881 167.435 360.029 179.938C360.107 186.462 357.421 191.292 351.636 193.945C345.866 196.591 340.173 196.003 334.815 191.389C334.288 190.973 334.13 190.824 333.962 190.687Z" fill="#00A0C6"/>
</svg>
