<svg width="1000" height="1000" viewBox="0 0 1000 1000" fill="none" xmlns="http://www.w3.org/2000/svg">
<rect width="1000" height="1000" fill="white"/>
<path d="M469.673 361.516C477.613 340.07 487.457 319.276 499.788 300C521.731 334.531 536.239 373.443 544.651 413.385C547.626 428.262 550.113 443.285 551.228 458.411C537.105 483.775 525.032 510.366 516.2 538.045C508.371 561.866 503.106 586.476 499.779 611.317C493.014 557.596 474.946 505.555 448.356 458.471C451.083 425.415 458.388 392.711 469.673 361.516Z" fill="#00A8EC"/>
<path d="M661.011 482.952C674.996 436.194 680.776 386.554 674.525 337.995C647.18 355.488 622.861 377.491 601.742 402.092C574.294 434.153 552.299 470.75 536.067 509.68C512.95 565.339 501.485 626.512 507.565 686.715C535.064 646.311 571.704 612.578 612.709 586.201C613.746 585.601 614.604 584.761 615.178 583.715C634.849 552.365 650.301 518.375 661.011 482.952Z" fill="#00A8EC"/>
<path d="M786.796 417.985C746.649 426.98 708.628 444.318 674.312 466.861C664.845 505.079 649.745 541.891 629.946 575.916C663.233 556.691 699.17 541.977 736.445 532.579C759.76 497.748 777.595 458.955 786.796 417.985Z" fill="#00A8EC"/>
<path d="M866.67 531.497C830.501 526.763 793.621 528.924 757.89 535.956C711.26 545.294 666.422 563.138 625.769 587.765C580.177 615.564 539.49 652.41 510.515 697.496C551.58 702.796 593.494 699.417 633.692 689.865C670.273 681.11 705.541 667.099 738.391 648.826C789.317 620.255 834.952 580.836 866.67 531.497Z" fill="#00A8EC"/>
<path d="M338.659 482.952C324.674 436.194 318.894 386.554 325.145 337.995C352.49 355.488 376.809 377.491 397.928 402.092C425.376 434.153 447.371 470.75 463.603 509.68C486.72 565.339 498.185 626.512 492.105 686.715C464.606 646.311 427.966 612.578 386.961 586.201C385.924 585.601 385.066 584.761 384.492 583.715C364.821 552.365 349.369 518.375 338.659 482.952Z" fill="#00A8EC"/>
<path d="M212.874 417.985C253.021 426.98 291.042 444.318 325.358 466.861C334.825 505.079 349.925 541.891 369.724 575.916C336.437 556.691 300.5 541.977 263.225 532.579C239.91 497.748 222.075 458.955 212.874 417.985Z" fill="#00A8EC"/>
<path d="M133 531.497C169.169 526.763 206.049 528.924 241.78 535.956C288.41 545.294 333.247 563.138 373.901 587.765C419.493 615.564 460.18 652.41 489.155 697.496C448.09 702.796 406.176 699.417 365.977 689.865C329.397 681.11 294.129 667.099 261.279 648.826C210.353 620.255 164.718 580.836 133 531.497Z" fill="#00A8EC"/>
</svg>
